<svg width="173" height="50" viewBox="0 0 173 50" fill="none" xmlns="http://www.w3.org/2000/svg">
<g clip-path="url(#clip0_200_43)">
<path d="M165.853 50H7.10254C3.66504 50 0.852539 47.1875 0.852539 43.75V6.25C0.852539 2.8125 3.66504 0 7.10254 0H165.853C169.29 0 172.103 2.8125 172.103 6.25V43.75C172.103 47.1875 169.29 50 165.853 50Z" fill="#100F0D"/>
<path d="M165.853 0H7.10254C3.66504 0 0.852539 2.8125 0.852539 6.25V43.75C0.852539 47.1875 3.66504 50 7.10254 50H165.853C169.29 50 172.103 47.1875 172.103 43.75V6.25C172.103 2.8125 169.29 0 165.853 0ZM165.853 0.9995C168.748 0.9995 171.103 3.355 171.103 6.25V43.75C171.103 46.6445 168.748 49 165.853 49H7.10254C4.20751 49 1.85254 46.6445 1.85254 43.75V6.25C1.85254 3.355 4.20751 0.9995 7.10254 0.9995H165.853Z" fill="#A2A2A1"/>
<path fill-rule="evenodd" clip-rule="evenodd" d="M51.5605 37.8081C47.6894 40.6646 42.0776 42.1836 37.2446 42.1836C30.4716 42.1836 24.373 39.6802 19.7573 35.5128C19.395 35.1855 19.7183 34.7388 20.1533 34.9921C25.1333 37.8892 31.2915 39.6348 37.6514 39.6348C41.9419 39.6348 46.6581 38.7441 50.9975 36.9034C51.6519 36.626 52.2006 37.3345 51.5605 37.8081Z" fill="white"/>
<path fill-rule="evenodd" clip-rule="evenodd" d="M53.1714 35.9681C52.6763 35.3349 49.8984 35.6684 48.6504 35.8178C48.2724 35.8631 48.2139 35.5326 48.5542 35.2934C50.7705 33.7376 54.4009 34.1869 54.8233 34.7079C55.248 35.2328 54.7114 38.8734 52.6353 40.6107C52.3154 40.8773 52.0113 40.7352 52.1538 40.3827C52.621 39.2157 53.667 36.6029 53.1714 35.9681Z" fill="white"/>
<path fill-rule="evenodd" clip-rule="evenodd" d="M48.7388 24.2995V22.7867C48.7403 22.5567 48.9126 22.4035 49.1221 22.4038L55.8999 22.4035C56.1167 22.4035 56.2906 22.5611 56.2906 22.7847V24.0821C56.2886 24.2995 56.1051 24.5831 55.7803 25.0342L52.2696 30.047C53.5728 30.0167 54.9507 30.2115 56.1358 30.8771C56.4023 31.0275 56.4737 31.2491 56.4952 31.4674V33.0811C56.4952 33.3033 56.2514 33.5606 55.9952 33.4263C53.9097 32.3341 51.1412 32.2145 48.8341 33.4401C48.5987 33.5655 48.3516 33.3121 48.3516 33.0895V31.5557C48.3516 31.3097 48.3564 30.8902 48.6041 30.5162L52.6719 24.6802H49.1299C48.9131 24.6802 48.7403 24.5255 48.7388 24.2995Z" fill="white"/>
<path fill-rule="evenodd" clip-rule="evenodd" d="M24.0142 33.7441H21.9522C21.7559 33.7315 21.5997 33.5845 21.5836 33.396L21.5849 22.813C21.5849 22.6006 21.7632 22.4321 21.9829 22.4321L23.9028 22.4316C24.1046 22.4414 24.2657 22.5933 24.2778 22.7866V24.1685H24.3169C24.8174 22.8325 25.7603 22.209 27.0303 22.209C28.3198 22.209 29.1289 22.8325 29.7061 24.1685C30.2066 22.8325 31.3428 22.209 32.5547 22.209C33.4214 22.209 34.3643 22.5645 34.9419 23.3668C35.5962 24.2578 35.4619 25.5494 35.4619 26.685L35.4599 33.3633C35.4599 33.5748 35.2818 33.7441 35.0621 33.7441H33.0024C32.7949 33.7315 32.6328 33.5674 32.6328 33.3648L32.6323 27.7539C32.6323 27.3091 32.6709 26.1949 32.5742 25.772C32.4204 25.0591 31.9586 24.8584 31.3618 24.8584C30.8608 24.8584 30.3413 25.1929 30.1294 25.7265C29.9179 26.2623 29.9371 27.1519 29.9371 27.7539V33.3633C29.9371 33.5748 29.7593 33.7441 29.5396 33.7441H27.4796C27.2724 33.7315 27.1094 33.5674 27.1094 33.3648L27.1074 27.7539C27.1074 26.5733 27.2993 24.8369 25.8374 24.8369C24.3546 24.8369 24.4126 26.5288 24.4126 27.7539L24.4122 33.3633C24.4122 33.5748 24.2339 33.7441 24.0142 33.7441Z" fill="white"/>
<path fill-rule="evenodd" clip-rule="evenodd" d="M62.1446 24.3686C60.6241 24.3686 60.5278 26.44 60.5278 27.7319C60.5278 29.0234 60.5088 31.7846 62.1256 31.7846C63.7237 31.7846 63.8003 29.5576 63.8003 28.2003C63.8003 27.3091 63.7617 26.2393 63.4922 25.3935C63.2608 24.6583 62.7988 24.3686 62.1446 24.3686ZM62.1256 22.209C65.1861 22.209 66.8413 24.8369 66.8413 28.1773C66.8413 31.4063 65.0132 33.9678 62.1256 33.9678C59.1226 33.9678 57.4868 31.3389 57.4868 28.0654C57.4868 24.7695 59.1417 22.209 62.1256 22.209Z" fill="white"/>
<path fill-rule="evenodd" clip-rule="evenodd" d="M70.81 33.7441H68.7559C68.5493 33.7315 68.3863 33.5674 68.3863 33.3648L68.3823 22.7779C68.3999 22.5835 68.5708 22.4321 68.7783 22.4321L70.6914 22.4316C70.871 22.4404 71.0205 22.5635 71.0576 22.7275V24.3463H71.0966C71.6738 22.8984 72.4819 22.209 73.9068 22.209C74.8305 22.209 75.7354 22.542 76.3125 23.4556C76.8515 24.3018 76.8515 25.7265 76.8515 26.7515V33.4116C76.8291 33.5986 76.6606 33.7441 76.4565 33.7441H74.3896C74.1983 33.7319 74.0444 33.5918 74.0224 33.4116V27.665C74.0224 26.5069 74.1573 24.8145 72.7329 24.8145C72.2324 24.8145 71.7705 25.1484 71.5395 25.6601C71.2505 26.3066 71.2119 26.9516 71.2119 27.665V33.3633C71.2085 33.5748 71.0303 33.7441 70.81 33.7441Z" fill="white"/>
<path fill-rule="evenodd" clip-rule="evenodd" d="M45.414 33.7182C45.2773 33.8409 45.081 33.8486 44.9273 33.7666C44.2422 33.1967 44.1197 32.9341 43.7452 32.3921C42.6133 33.5449 41.812 33.8911 40.3452 33.8911C38.6094 33.8911 37.2588 32.8199 37.2588 30.6772C37.2588 29.0029 38.1655 27.8647 39.458 27.3071C40.5767 26.8154 42.1392 26.7265 43.3354 26.5922V26.3242C43.3354 25.833 43.374 25.2539 43.0844 24.8296C42.8335 24.4502 42.3515 24.294 41.9273 24.294C41.1407 24.294 40.4419 24.6962 40.2695 25.5317C40.2344 25.7177 40.0982 25.9014 39.9122 25.9111L37.913 25.6944C37.7442 25.6567 37.5567 25.521 37.6054 25.2627C38.0649 22.8389 40.2544 22.1065 42.2163 22.1065C43.2198 22.1065 44.5313 22.3735 45.3223 23.1327C46.3252 24.0702 46.2285 25.3202 46.2285 26.6821V29.894C46.2285 30.8614 46.6299 31.2846 47.0073 31.8051C47.1392 31.9931 47.1684 32.2159 47.0005 32.3535C46.5792 32.706 45.831 33.3565 45.4189 33.7231L45.414 33.7182ZM43.3354 28.6904C43.3354 29.4946 43.355 30.1636 42.9497 30.8779C42.6215 31.458 42.1005 31.8154 41.5219 31.8154C40.7309 31.8154 40.268 31.2124 40.268 30.3199C40.268 28.564 41.8438 28.2436 43.3354 28.2436V28.6904Z" fill="white"/>
<path fill-rule="evenodd" clip-rule="evenodd" d="M18.3823 33.7182C18.246 33.8409 18.0488 33.8486 17.8955 33.7666C17.2099 33.1967 17.0879 32.9341 16.7139 32.3921C15.5815 33.5449 14.7803 33.8911 13.314 33.8911C11.5776 33.8911 10.2275 32.8199 10.2275 30.6772C10.2275 29.0029 11.1338 27.8647 12.4268 27.3071C13.5454 26.8154 15.1079 26.7265 16.3032 26.5922V26.3242C16.3032 25.833 16.3428 25.2539 16.0532 24.8296C15.8018 24.4502 15.3193 24.294 14.8955 24.294C14.1094 24.294 13.4097 24.6962 13.2383 25.5317C13.2022 25.7177 13.0669 25.9014 12.8799 25.9111L10.8809 25.6944C10.7124 25.6567 10.5244 25.521 10.5737 25.2627C11.0322 22.8389 13.2227 22.1065 15.1845 22.1065C16.188 22.1065 17.5 22.3735 18.291 23.1327C19.2934 24.0702 19.1973 25.3202 19.1973 26.6821V29.894C19.1973 30.8614 19.5987 31.2846 19.975 31.8051C20.1064 31.9931 20.1363 32.2159 19.9688 32.3535C19.5474 32.706 18.7983 33.3565 18.3872 33.7231L18.3823 33.7182ZM16.3032 28.6904C16.3032 29.4946 16.3233 30.1636 15.9175 30.8779C15.5898 31.458 15.0688 31.8154 14.4903 31.8154C13.6997 31.8154 13.2363 31.2124 13.2363 30.3199C13.2363 28.564 14.8125 28.2436 16.3032 28.2436V28.6904Z" fill="white"/>
<path d="M85.9258 32.0576C86.3418 32.0576 86.7798 31.9682 87.2393 31.7876C87.6983 31.6093 88.1435 31.3544 88.5733 31.0233V28.9564C87.813 28.7993 87.1377 28.7202 86.5498 28.7202C85.0572 28.7202 84.3105 29.3007 84.3105 30.4643C84.3105 30.9658 84.4542 31.3578 84.7417 31.6377C85.0283 31.9169 85.4229 32.0576 85.9258 32.0576ZM85.2153 33.8667C84.2099 33.8667 83.396 33.5649 82.7715 32.9618C82.1469 32.3588 81.8344 31.5761 81.8344 30.6142C81.8344 29.5527 82.2183 28.7056 82.9868 28.0742C83.7539 27.4418 84.7842 27.1269 86.0767 27.1269C86.8369 27.1269 87.6699 27.2343 88.5733 27.4492V26.1787C88.5733 25.4472 88.416 24.9369 88.0997 24.6498C87.7847 24.3632 87.2319 24.2192 86.4429 24.2192C85.9693 24.2192 85.4448 24.2671 84.8707 24.3598C84.2959 24.4536 83.751 24.5854 83.2339 24.7577C83.0903 24.8002 82.9688 24.8222 82.8677 24.8222C82.6817 24.8222 82.5884 24.6864 82.5884 24.4136V23.6162C82.5884 23.4159 82.6167 23.2719 82.6743 23.1864C82.7314 23.1001 82.8823 23.0073 83.1264 22.9057C84.246 22.4751 85.4873 22.2597 86.8515 22.2597C88.2583 22.2597 89.2949 22.5468 89.9614 23.1221C90.6304 23.6952 90.9648 24.5927 90.9648 25.8134V33.0693C90.9648 33.3857 90.8062 33.5429 90.4912 33.5429H89.3487C89.0337 33.5429 88.854 33.3998 88.81 33.1118L88.7027 32.4882C88.1997 32.9179 87.6445 33.2563 87.0347 33.5004C86.4243 33.7441 85.8184 33.8667 85.2153 33.8667Z" fill="white"/>
<path d="M98.3559 31.7779C99.2739 31.7779 99.9566 31.4654 100.401 30.8404C100.846 30.2163 101.068 29.2656 101.068 27.9873C101.068 26.7241 100.85 25.7881 100.412 25.1778C99.9737 24.5669 99.2959 24.2631 98.3769 24.2631C97.4443 24.2631 96.5826 24.5351 95.7926 25.081V30.938C96.5972 31.4971 97.4517 31.7779 98.3559 31.7779ZM93.7261 37.979C93.4097 37.979 93.2524 37.8203 93.2524 37.5054V23.0571C93.2524 22.7413 93.4097 22.5835 93.7261 22.5835H94.9102C95.2261 22.5835 95.4131 22.7265 95.4702 23.0131L95.5997 23.6806C96.1016 23.2216 96.6582 22.8706 97.2686 22.6265C97.8774 22.3824 98.5137 22.2598 99.1738 22.2598C100.538 22.2598 101.625 22.77 102.436 23.7886C103.246 24.8091 103.653 26.1788 103.653 27.9024C103.653 29.0933 103.455 30.1333 103.061 31.0234C102.665 31.9136 102.116 32.5958 101.413 33.0694C100.709 33.543 99.9063 33.7798 99.0019 33.7798C98.3989 33.7798 97.8179 33.6758 97.2573 33.4673C96.6973 33.2598 96.2091 32.9693 95.7926 32.5958V37.5054C95.7926 37.8203 95.6353 37.979 95.3188 37.979H93.7261Z" fill="white"/>
<path d="M110.586 31.7779C111.504 31.7779 112.187 31.4654 112.631 30.8404C113.077 30.2163 113.299 29.2656 113.299 27.9873C113.299 26.7241 113.08 25.7881 112.642 25.1778C112.204 24.5669 111.526 24.2631 110.607 24.2631C109.674 24.2631 108.813 24.5351 108.023 25.081V30.938C108.827 31.4971 109.682 31.7779 110.586 31.7779ZM105.956 37.979C105.64 37.979 105.482 37.8203 105.482 37.5054V23.0571C105.482 22.7413 105.64 22.5835 105.956 22.5835H107.14C107.457 22.5835 107.643 22.7265 107.701 23.0131L107.83 23.6806C108.332 23.2216 108.888 22.8706 109.499 22.6265C110.108 22.3824 110.744 22.2598 111.404 22.2598C112.768 22.2598 113.855 22.77 114.666 23.7886C115.477 24.8091 115.883 26.1788 115.883 27.9024C115.883 29.0933 115.685 30.1333 115.291 31.0234C114.896 31.9136 114.346 32.5958 113.643 33.0694C112.94 33.543 112.137 33.7798 111.232 33.7798C110.629 33.7798 110.048 33.6758 109.488 33.4673C108.927 33.2598 108.439 32.9693 108.023 32.5958V37.5054C108.023 37.8203 107.865 37.979 107.549 37.979H105.956Z" fill="white"/>
<path d="M120.647 33.8667C119.513 33.8667 118.466 33.6796 117.504 33.3061C117.274 33.2197 117.127 33.1303 117.062 33.0361C116.998 32.9438 116.966 32.7894 116.966 32.5737V31.7988C116.966 31.5117 117.066 31.3676 117.267 31.3676C117.367 31.3676 117.569 31.4116 117.87 31.4971C118.89 31.7851 119.808 31.9282 120.626 31.9282C121.344 31.9282 121.868 31.8168 122.198 31.5947C122.528 31.3716 122.693 31.0307 122.693 30.5717C122.693 30.2558 122.593 30.0004 122.392 29.8076C122.19 29.6132 121.818 29.4154 121.272 29.2158L119.485 28.5258C117.877 27.9091 117.073 26.9033 117.073 25.5122C117.073 24.5073 117.447 23.7138 118.192 23.1318C118.939 22.5502 119.937 22.2597 121.186 22.2597C122.076 22.2597 122.973 22.4111 123.877 22.7113C124.093 22.7837 124.236 22.8667 124.308 22.9594C124.38 23.0537 124.416 23.2148 124.416 23.4443V24.1987C124.416 24.3559 124.39 24.4667 124.34 24.5317C124.29 24.5962 124.201 24.6278 124.071 24.6278C124 24.6278 123.82 24.5927 123.533 24.5204C122.628 24.3056 121.896 24.1987 121.337 24.1987C120.677 24.1987 120.192 24.2948 119.883 24.4887C119.574 24.6816 119.42 24.9868 119.42 25.4033C119.42 25.7197 119.532 25.9746 119.754 26.1689C119.976 26.3618 120.375 26.5742 120.949 26.8037L122.606 27.4492C123.468 27.7797 124.09 28.1743 124.469 28.6332C124.85 29.0932 125.041 29.6743 125.041 30.3774C125.041 31.4546 124.652 32.3051 123.877 32.9292C123.102 33.5542 122.025 33.8667 120.647 33.8667Z" fill="white"/>
<path d="M131.069 33.6934C129.935 33.6934 129.095 33.4282 128.55 32.8975C128.005 32.3662 127.731 31.5546 127.731 30.4644V24.5205H126.353C126.038 24.5205 125.879 24.3632 125.879 24.0474V23.4234C125.879 23.2369 125.916 23.1035 125.988 23.0239C126.059 22.9457 126.174 22.8926 126.333 22.8627L127.818 22.6484L128.14 20.042C128.155 19.8701 128.205 19.7475 128.291 19.6757C128.376 19.605 128.506 19.5684 128.679 19.5684H129.799C130.114 19.5684 130.273 19.727 130.273 20.042V22.5835H132.92C133.236 22.5835 133.394 22.7412 133.394 23.0571V24.0474C133.394 24.3632 133.236 24.5205 132.92 24.5205H130.273V30.335C130.273 30.8232 130.391 31.1709 130.628 31.3784C130.865 31.5874 131.263 31.6909 131.823 31.6909C132.153 31.6909 132.419 31.669 132.619 31.6265C132.82 31.584 132.985 31.5615 133.114 31.5615C133.359 31.5615 133.48 31.6987 133.48 31.9707V32.7461C133.48 32.9765 133.44 33.1377 133.363 33.2305C133.283 33.3247 133.136 33.3999 132.92 33.456C132.318 33.6152 131.701 33.6934 131.069 33.6934Z" fill="white"/>
<path d="M139.45 31.8632C141.258 31.8632 142.163 30.5922 142.163 28.0522C142.163 25.5253 141.258 24.2631 139.45 24.2631C137.641 24.2631 136.736 25.5253 136.736 28.0522C136.736 30.5922 137.641 31.8632 139.45 31.8632ZM139.45 33.8667C137.784 33.8667 136.485 33.3524 135.553 32.3256C134.619 31.3002 134.153 29.8759 134.153 28.0522C134.153 26.2299 134.619 24.8091 135.553 23.7886C136.485 22.7699 137.784 22.2597 139.45 22.2597C141.115 22.2597 142.414 22.7699 143.346 23.7886C144.28 24.8091 144.746 26.2299 144.746 28.0522C144.746 29.8759 144.28 31.3002 143.346 32.3256C142.414 33.3524 141.115 33.8667 139.45 33.8667Z" fill="white"/>
<path d="M147.028 33.543C146.711 33.543 146.554 33.3857 146.554 33.0693V23.0571C146.554 22.7412 146.711 22.5835 147.028 22.5835H148.169C148.371 22.5835 148.51 22.6118 148.589 22.669C148.668 22.7265 148.723 22.835 148.75 22.9921L149.009 24.2192C149.583 23.5878 150.121 23.1426 150.624 22.8847C151.126 22.6265 151.671 22.4971 152.26 22.4971H152.346C152.534 22.4971 152.688 22.5151 152.809 22.5502C152.931 22.5868 153.018 22.6483 153.068 22.7333C153.118 22.8202 153.144 22.9775 153.144 23.207V24.3706C153.144 24.6723 153.014 24.8222 152.755 24.8222C152.67 24.8222 152.551 24.815 152.4 24.8002C152.25 24.7871 152.088 24.7792 151.915 24.7792C150.854 24.7792 149.914 25.0517 149.095 25.5971V33.0693C149.095 33.3857 148.938 33.543 148.621 33.543H147.028Z" fill="white"/>
<path d="M161.041 26.9756V26.8037C161.041 25.9282 160.851 25.2607 160.47 24.8002C160.091 24.3412 159.534 24.1118 158.801 24.1118C158.026 24.1118 157.395 24.3706 156.908 24.8872C156.419 25.4033 156.139 26.1006 156.068 26.9756H161.041ZM159.233 33.8667C157.424 33.8667 156.053 33.3778 155.12 32.4018C154.186 31.4262 153.72 30.0038 153.72 28.1386C153.72 26.2871 154.176 24.8442 155.088 23.8099C155.999 22.7763 157.274 22.2597 158.909 22.2597C160.316 22.2597 161.396 22.6444 162.15 23.4126C162.904 24.1801 163.28 25.2681 163.28 26.6743C163.28 27.1626 163.245 27.6728 163.173 28.2021C163.144 28.3891 163.09 28.5146 163.011 28.5796C162.933 28.6439 162.829 28.6772 162.699 28.6772H156.068C156.11 29.7676 156.415 30.5683 156.983 31.0771C157.549 31.5873 158.423 31.8422 159.599 31.8422C160.459 31.8422 161.364 31.7056 162.311 31.4326C162.426 31.4042 162.513 31.3823 162.57 31.3676C162.628 31.3544 162.678 31.3466 162.721 31.3466C162.936 31.3466 163.044 31.4897 163.044 31.7778V32.5532C163.044 32.7681 163.011 32.9213 162.948 33.0156C162.883 33.1083 162.735 33.1987 162.505 33.2841C161.544 33.6723 160.453 33.8667 159.233 33.8667Z" fill="white"/>
<path d="M60.7603 15C61.0073 15 61.2662 14.9511 61.5367 14.854C61.8067 14.7564 62.0649 14.6132 62.313 14.4262V13.2787C61.9077 13.1816 61.5103 13.1327 61.1207 13.1327C60.2724 13.1327 59.8492 13.459 59.8492 14.1114C59.8492 14.3965 59.9278 14.6162 60.0849 14.769C60.2427 14.9229 60.4678 15 60.7603 15ZM60.4907 15.8442C59.9575 15.8442 59.5323 15.6919 59.2139 15.3881C58.8945 15.084 58.7354 14.6777 58.7354 14.1675C58.7354 13.6201 58.9302 13.1831 59.3203 12.8569C59.7099 12.5302 60.2354 12.3671 60.895 12.3671C61.3149 12.3671 61.7875 12.4316 62.313 12.5586V11.8164C62.313 11.4111 62.2207 11.1265 62.0372 10.9609C61.8535 10.7964 61.5405 10.7139 61.0977 10.7139C60.58 10.7139 60.0742 10.789 59.5792 10.9385C59.4068 10.9912 59.2979 11.0171 59.2524 11.0171C59.163 11.0171 59.1177 10.9502 59.1177 10.8154V10.5112C59.1177 10.4136 59.1323 10.3422 59.163 10.2979C59.1929 10.2525 59.2524 10.2114 59.3423 10.1739C59.5747 10.0689 59.8697 9.98436 60.2255 9.92036C60.582 9.85686 60.936 9.82474 61.2885 9.82474C62.001 9.82474 62.5269 9.97311 62.8643 10.2695C63.2017 10.5659 63.3702 11.0171 63.3702 11.625V15.4721C63.3702 15.6225 63.2949 15.6972 63.145 15.6972H62.6617C62.5185 15.6972 62.4365 15.626 62.4135 15.4839L62.3574 15.1127C62.0879 15.3452 61.789 15.5249 61.4634 15.6524C61.1367 15.7797 60.813 15.8442 60.4907 15.8442Z" fill="white"/>
<path d="M66.4532 15.6973C66.3482 15.6973 66.271 15.6831 66.2222 15.6524C66.1733 15.6225 66.1226 15.5361 66.0703 15.3935L64.0792 10.3989C64.0639 10.354 64.0469 10.3086 64.0288 10.2636C64.0098 10.2188 64.0005 10.1773 64.0005 10.1401C64.0005 10.0425 64.0567 9.99364 64.1689 9.99364H64.833C64.9453 9.99364 65.0239 10.0088 65.0693 10.039C65.1138 10.0689 65.1625 10.1548 65.2153 10.2979L66.7563 14.685L68.2979 10.2979C68.35 10.1548 68.3994 10.0689 68.4438 10.039C68.4893 10.0088 68.5679 9.99364 68.6802 9.99364H69.2988C69.4117 9.99364 69.4683 10.0425 69.4683 10.1401C69.4683 10.1773 69.4586 10.2188 69.4394 10.2636C69.4214 10.3086 69.4038 10.354 69.3897 10.3989L67.4092 15.3935C67.3564 15.5361 67.3057 15.6225 67.2573 15.6524C67.2085 15.6831 67.1318 15.6973 67.0269 15.6973H66.4532Z" fill="white"/>
<path d="M71.9424 15C72.1894 15 72.4488 14.9511 72.7188 14.854C72.9888 14.7564 73.2475 14.6132 73.4952 14.4262V13.2787C73.0898 13.1816 72.6929 13.1327 72.3028 13.1327C71.4545 13.1327 71.0313 13.459 71.0313 14.1114C71.0313 14.3965 71.1099 14.6162 71.2675 14.769C71.4248 14.9229 71.6504 15 71.9424 15ZM71.6729 15.8442C71.1402 15.8442 70.7144 15.6919 70.396 15.3881C70.0767 15.084 69.9175 14.6777 69.9175 14.1675C69.9175 13.6201 70.1128 13.1831 70.5024 12.8569C70.892 12.5302 71.4175 12.3671 72.0777 12.3671C72.497 12.3671 72.9698 12.4316 73.4952 12.5586V11.8164C73.4952 11.4111 73.4028 11.1265 73.2193 10.9609C73.0357 10.7964 72.7227 10.7139 72.2803 10.7139C71.7622 10.7139 71.2563 10.789 70.7613 10.9385C70.5889 10.9912 70.48 11.0171 70.435 11.0171C70.3452 11.0171 70.2998 10.9502 70.2998 10.8154V10.5112C70.2998 10.4136 70.3144 10.3422 70.3452 10.2979C70.375 10.2525 70.435 10.2114 70.5249 10.1739C70.7573 10.0689 71.0523 9.98436 71.4077 9.92036C71.7642 9.85686 72.1182 9.82474 72.4712 9.82474C73.1832 9.82474 73.709 9.97311 74.0464 10.2695C74.3838 10.5659 74.5523 11.0171 74.5523 11.625V15.4721C74.5523 15.6225 74.477 15.6972 74.3272 15.6972H73.8438C73.7007 15.6972 73.6187 15.626 73.5957 15.4839L73.5395 15.1127C73.27 15.3452 72.9717 15.5249 72.6455 15.6524C72.3188 15.7797 71.9952 15.8442 71.6729 15.8442Z" fill="white"/>
<path d="M76.3072 15.6973C76.1573 15.6973 76.0826 15.6225 76.0826 15.4721V10.2188C76.0826 10.0689 76.1573 9.99364 76.3072 9.99364H76.9712C77.1207 9.99364 77.1958 10.0689 77.1958 10.2188V15.4721C77.1958 15.6225 77.1207 15.6973 76.9712 15.6973H76.3072ZM76.6446 8.98101C76.4273 8.98101 76.2563 8.91939 76.1333 8.79539C76.0093 8.67189 75.9478 8.50877 75.9478 8.30614C75.9478 8.10352 76.0093 7.94039 76.1333 7.81639C76.2563 7.69339 76.4273 7.63089 76.6446 7.63089C76.8623 7.63089 77.0327 7.69339 77.1568 7.81639C77.2808 7.94039 77.3423 8.10352 77.3423 8.30614C77.3423 8.50877 77.2808 8.67189 77.1568 8.79539C77.0327 8.91939 76.8623 8.98101 76.6446 8.98101Z" fill="white"/>
<path d="M79.9639 15.7534C79.5664 15.7534 79.2622 15.6397 79.0528 15.4107C78.8428 15.1817 78.7373 14.854 78.7373 14.4263V7.59767C78.7373 7.44729 78.8126 7.37217 78.9629 7.37217H79.6261C79.7764 7.37217 79.8516 7.44729 79.8516 7.59767V14.3589C79.8516 14.5313 79.8867 14.6568 79.9586 14.7359C80.0288 14.8145 80.1474 14.854 80.3126 14.854C80.3574 14.854 80.4043 14.8507 80.4532 14.8423C80.5019 14.835 80.5449 14.8315 80.5826 14.8315C80.6577 14.8315 80.7081 14.8507 80.7349 14.8878C80.7608 14.9253 80.7734 14.9815 80.7734 15.0562V15.416C80.7734 15.4913 80.7573 15.5498 80.7232 15.5909C80.6894 15.6324 80.6313 15.664 80.5488 15.6865C80.3608 15.731 80.1666 15.7534 79.9639 15.7534Z" fill="white"/>
<path d="M83.4394 15C83.6871 15 83.9458 14.9511 84.2158 14.854C84.4858 14.7564 84.7447 14.6132 84.9922 14.4262V13.2787C84.5874 13.1816 84.1899 13.1327 83.7998 13.1327C82.9522 13.1327 82.5283 13.459 82.5283 14.1114C82.5283 14.3965 82.6069 14.6162 82.7647 14.769C82.9224 14.9229 83.1474 15 83.4394 15ZM83.1699 15.8442C82.6372 15.8442 82.2119 15.6919 81.8931 15.3881C81.5738 15.084 81.4146 14.6777 81.4146 14.1675C81.4146 13.6201 81.6099 13.1831 82.0001 12.8569C82.3892 12.5302 82.9151 12.3671 83.5747 12.3671C83.9947 12.3671 84.4668 12.4316 84.9922 12.5586V11.8164C84.9922 11.4111 84.9004 11.1265 84.7163 10.9609C84.5327 10.7964 84.2198 10.7139 83.7773 10.7139C83.2598 10.7139 82.7539 10.789 82.2588 10.9385C82.0859 10.9912 81.9776 11.0171 81.9322 11.0171C81.8423 11.0171 81.7974 10.9502 81.7974 10.8154V10.5112C81.7974 10.4136 81.8121 10.3422 81.8423 10.2979C81.8721 10.2525 81.9322 10.2114 82.0219 10.1739C82.2544 10.0689 82.5493 9.98436 82.9053 9.92036C83.2613 9.85686 83.6157 9.82474 83.9683 9.82474C84.6807 9.82474 85.2061 9.97311 85.5434 10.2695C85.8818 10.5659 86.0503 11.0171 86.0503 11.625V15.4721C86.0503 15.6225 85.9747 15.6972 85.8242 15.6972H85.3408C85.1983 15.6972 85.1157 15.626 85.0933 15.4839L85.0372 15.1127C84.7671 15.3452 84.4688 15.5249 84.1426 15.6524C83.8164 15.7797 83.4922 15.8442 83.1699 15.8442Z" fill="white"/>
<path d="M90.1333 14.9209C91.1684 14.9209 91.6861 14.2237 91.6861 12.8292C91.6861 12.1168 91.5605 11.5874 91.309 11.2427C91.0577 10.8975 90.6729 10.7252 90.1553 10.7252C89.623 10.7252 89.1202 10.8975 88.6479 11.2427V14.3809C89.1202 14.7413 89.6157 14.9209 90.1333 14.9209ZM90.392 15.8213C89.7027 15.8213 89.0982 15.5815 88.5805 15.1012L88.5024 15.4722C88.4795 15.6225 88.3926 15.6973 88.2437 15.6973H87.7593C87.6089 15.6973 87.5347 15.6225 87.5347 15.4722V7.59766C87.5347 7.44729 87.6089 7.37216 87.7593 7.37216H88.4233C88.5733 7.37216 88.6479 7.44729 88.6479 7.59766V10.5342C89.2104 10.0615 89.8184 9.82479 90.4702 9.82479C91.1978 9.82479 91.7715 10.0879 92.1914 10.6128C92.6113 11.1378 92.8228 11.8579 92.8228 12.773C92.8228 13.6949 92.6005 14.4342 92.1587 14.9888C91.7153 15.544 91.1269 15.8213 90.392 15.8213Z" fill="white"/>
<path d="M95.2529 15.7534C94.8551 15.7534 94.5513 15.6397 94.3413 15.4107C94.1313 15.1817 94.0264 14.854 94.0264 14.4263V7.59767C94.0264 7.44729 94.1006 7.37217 94.2511 7.37217H94.9151C95.0649 7.37217 95.1397 7.44729 95.1397 7.59767V14.3589C95.1397 14.5313 95.1748 14.6568 95.2471 14.7359C95.3179 14.8145 95.4361 14.854 95.6011 14.854C95.6461 14.854 95.6924 14.8507 95.7412 14.8423C95.7901 14.835 95.8341 14.8315 95.8707 14.8315C95.9463 14.8315 95.9966 14.8507 96.0234 14.8878C96.0488 14.9253 96.0626 14.9815 96.0626 15.0562V15.416C96.0626 15.4913 96.0454 15.5498 96.0122 15.5909C95.9781 15.6324 95.9194 15.664 95.8379 15.6865C95.6499 15.731 95.4546 15.7534 95.2529 15.7534Z" fill="white"/>
<path d="M100.652 12.3447C100.66 12.2851 100.663 12.1875 100.663 12.0522C100.663 11.5952 100.557 11.25 100.342 11.0171C100.128 10.7851 99.8159 10.669 99.4033 10.669C98.9312 10.669 98.5636 10.8091 98.3013 11.0903C98.0386 11.3721 97.8887 11.79 97.8506 12.3447H100.652ZM99.5718 15.8662C98.6489 15.8662 97.9522 15.6113 97.4796 15.1011C97.0073 14.5912 96.7706 13.8378 96.7706 12.8398C96.7706 11.8877 97.0073 11.1465 97.4796 10.6181C97.9522 10.0898 98.6123 9.82471 99.4594 9.82471C100.172 9.82471 100.719 10.0253 101.103 10.4272C101.485 10.8281 101.676 11.3965 101.676 12.1313C101.676 12.3711 101.657 12.6152 101.619 12.8622C101.605 12.9526 101.58 13.0127 101.547 13.0425C101.513 13.0722 101.458 13.0873 101.383 13.0873H97.8506C97.8653 13.7328 98.0254 14.209 98.3292 14.5166C98.6333 14.8242 99.1031 14.977 99.7403 14.977C99.9663 14.977 100.181 14.9623 100.387 14.9326C100.594 14.9028 100.855 14.8388 101.17 14.7412C101.222 14.7265 101.268 14.7128 101.304 14.7021C101.342 14.6903 101.376 14.685 101.405 14.685C101.503 14.685 101.552 14.7525 101.552 14.8877V15.2026C101.552 15.3002 101.537 15.3696 101.507 15.4106C101.478 15.4521 101.413 15.4951 101.316 15.54C101.09 15.6377 100.823 15.7162 100.512 15.7763C100.201 15.8358 99.8867 15.8662 99.5718 15.8662Z" fill="white"/>
<path d="M107.289 15C107.537 15 107.796 14.9511 108.065 14.854C108.335 14.7564 108.594 14.6132 108.842 14.4262V13.2787C108.437 13.1816 108.039 13.1327 107.649 13.1327C106.801 13.1327 106.377 13.459 106.377 14.1114C106.377 14.3965 106.457 14.6162 106.614 14.769C106.772 14.9229 106.996 15 107.289 15ZM107.02 15.8442C106.486 15.8442 106.061 15.6919 105.743 15.3881C105.424 15.084 105.264 14.6777 105.264 14.1675C105.264 13.6201 105.459 13.1831 105.849 12.8569C106.239 12.5302 106.764 12.3671 107.425 12.3671C107.845 12.3671 108.317 12.4316 108.842 12.5586V11.8164C108.842 11.4111 108.749 11.1265 108.566 10.9609C108.382 10.7964 108.069 10.7139 107.626 10.7139C107.108 10.7139 106.603 10.789 106.107 10.9385C105.936 10.9912 105.827 11.0171 105.782 11.0171C105.691 11.0171 105.646 10.9502 105.646 10.8154V10.5112C105.646 10.4136 105.662 10.3422 105.691 10.2979C105.722 10.2525 105.782 10.2114 105.872 10.1739C106.104 10.0689 106.398 9.98436 106.754 9.92036C107.111 9.85686 107.465 9.82474 107.818 9.82474C108.531 9.82474 109.056 9.97311 109.393 10.2695C109.73 10.5659 109.899 11.0171 109.899 11.625V15.4721C109.899 15.6225 109.825 15.6972 109.674 15.6972H109.19C109.048 15.6972 108.965 15.626 108.943 15.4839L108.887 15.1127C108.616 15.3452 108.318 15.5249 107.992 15.6524C107.667 15.7797 107.342 15.8442 107.02 15.8442Z" fill="white"/>
<path d="M113.343 15.7764C112.277 15.7764 111.745 15.2441 111.745 14.1792V10.8716H110.934C110.784 10.8716 110.709 10.7964 110.709 10.646V10.3647C110.709 10.2905 110.727 10.2334 110.76 10.1962C110.794 10.1587 110.86 10.1324 110.958 10.1176L111.779 10.0161L111.924 8.62112C111.94 8.47162 112.018 8.39649 112.161 8.39649H112.633C112.784 8.39649 112.858 8.47162 112.858 8.62112V9.99362H114.32C114.471 9.99362 114.546 10.0689 114.546 10.2187V10.646C114.546 10.7964 114.471 10.8716 114.32 10.8716H112.858V14.1225C112.858 14.3999 112.92 14.5952 113.043 14.7075C113.168 14.8199 113.379 14.876 113.68 14.876C113.822 14.876 113.998 14.8574 114.208 14.8199C114.32 14.7974 114.396 14.7861 114.434 14.7861C114.494 14.7861 114.534 14.8032 114.557 14.8369C114.579 14.8706 114.591 14.9252 114.591 15V15.3037C114.591 15.4014 114.576 15.4746 114.546 15.523C114.516 15.5717 114.456 15.6114 114.366 15.6416C114.074 15.731 113.732 15.7764 113.343 15.7764Z" fill="white"/>
</g>
<defs>
<clipPath id="clip0_200_43">
<rect width="171.25" height="50" fill="white" transform="translate(0.852539)"/>
</clipPath>
</defs>
</svg>
