<svg width="150" height="50" viewBox="0 0 150 50" fill="none" xmlns="http://www.w3.org/2000/svg">
<rect width="150" height="50" rx="5" fill="white"/>
<g clip-path="url(#clip0_62_26)">
<path fill-rule="evenodd" clip-rule="evenodd" d="M83.2118 30.641C79.3656 33.485 73.7712 35 68.9461 35C62.1862 35 56.1256 32.5059 51.5102 28.3567C51.1606 28.0305 51.4636 27.5875 51.9065 27.8439C56.8715 30.7343 63.002 32.4593 69.3423 32.4593C73.608 32.4593 78.3166 31.5735 82.6523 29.732C83.3047 29.4756 83.841 30.1749 83.2117 30.641H83.2118Z" fill="#FF9900"/>
<path fill-rule="evenodd" clip-rule="evenodd" d="M84.8202 28.7996C84.3308 28.1702 81.5568 28.4965 80.3214 28.6597C79.9484 28.7063 79.8785 28.38 80.2282 28.1469C82.4426 26.5851 86.0556 27.0513 86.4752 27.5641C86.8948 28.077 86.3587 31.713 84.2837 33.4382C83.9575 33.6946 83.6544 33.5547 83.7944 33.2051C84.2608 32.0396 85.3097 29.4521 84.8202 28.7996Z" fill="#FF9900"/>
<path fill-rule="evenodd" clip-rule="evenodd" d="M80.3913 17.1915V15.676C80.3886 15.6263 80.3965 15.5766 80.4143 15.5301C80.4321 15.4837 80.4595 15.4415 80.4946 15.4063C80.5298 15.3712 80.572 15.3438 80.6185 15.326C80.6649 15.3082 80.7146 15.3003 80.7643 15.303H87.5242C87.6259 15.3008 87.7244 15.3387 87.7986 15.4085C87.8727 15.4782 87.9165 15.5743 87.9205 15.676V16.958C87.9205 17.1678 87.734 17.4474 87.4076 17.9137L83.9112 22.9021C85.2166 22.8788 86.592 23.0652 87.7574 23.7177C88.0137 23.8576 88.0836 24.0907 88.107 24.3005V25.9088C88.107 26.1419 87.8739 26.3982 87.6176 26.2585C85.543 25.1629 82.7691 25.0463 80.4848 26.2818C80.2517 26.3983 79.9955 26.1653 79.9955 25.9322V24.3939C79.9955 24.1607 79.9955 23.7414 80.2519 23.3683L84.3078 17.5641H80.7876C80.6859 17.5662 80.5874 17.5284 80.5133 17.4587C80.4392 17.3891 80.3954 17.2931 80.3913 17.1915ZM55.7527 26.585H53.7014C53.6095 26.5757 53.5232 26.5365 53.4558 26.4733C53.3884 26.4101 53.3436 26.3265 53.3285 26.2354V15.6993C53.3325 15.5976 53.3763 15.5016 53.4504 15.4318C53.5245 15.3621 53.623 15.3242 53.7247 15.3263H55.6361C55.7306 15.3277 55.8212 15.3644 55.8902 15.429C55.9592 15.4937 56.0016 15.5817 56.0091 15.676V17.0513H56.0557C56.5451 15.7226 57.5009 15.0933 58.7597 15.0933C60.0417 15.0933 60.8575 15.7226 61.417 17.0513C61.9064 15.7226 63.0487 15.0933 64.261 15.0933C65.1235 15.0933 66.0559 15.4429 66.6386 16.2588C67.2911 17.1445 67.1515 18.4266 67.1515 19.5688V26.2354C67.1474 26.3371 67.1037 26.4331 67.0296 26.5029C66.9555 26.5726 66.857 26.6105 66.7552 26.6084H64.727C64.5172 26.5851 64.354 26.4219 64.354 26.2354V20.641C64.354 20.1981 64.4006 19.0792 64.3074 18.6596C64.1443 17.9603 63.7014 17.7506 63.0953 17.7506C62.8277 17.7582 62.5682 17.8439 62.3487 17.9971C62.1292 18.1504 61.9592 18.3645 61.8599 18.613C61.6501 19.1491 61.6734 20.0349 61.6734 20.641V26.2354C61.6694 26.3371 61.6256 26.4331 61.5515 26.5029C61.4774 26.5726 61.3789 26.6105 61.2772 26.6084H59.2259C59.0161 26.5851 58.8529 26.4219 58.8529 26.2354V20.641C58.8529 19.4754 59.0394 17.7272 57.5942 17.7272C56.1257 17.7272 56.1723 19.4055 56.1723 20.641V26.2354C56.1576 26.3351 56.1067 26.4259 56.0293 26.4904C55.9519 26.5549 55.8534 26.5886 55.7527 26.5851V26.585ZM93.7479 15.0933C96.8015 15.0933 98.4565 17.704 98.4565 21.0373C98.4565 24.2541 96.6384 26.8181 93.7479 26.8181C90.7642 26.8181 89.1325 24.2074 89.1325 20.944C89.1092 17.6573 90.7642 15.093 93.7479 15.093V15.0933ZM93.7479 17.2611C92.2327 17.2611 92.1395 19.3357 92.1395 20.6177C92.1395 21.8998 92.1162 24.6503 93.7246 24.6503C95.3097 24.6503 95.4029 22.4359 95.4029 21.0839C95.4029 20.1981 95.3563 19.1259 95.0999 18.2867C94.8668 17.5407 94.4006 17.2611 93.7479 17.2611ZM102.396 26.585H100.345C100.135 26.5617 99.9716 26.3985 99.9716 26.212V15.6525C99.9845 15.5562 100.032 15.4678 100.104 15.4036C100.177 15.3394 100.271 15.3036 100.368 15.3028H102.279C102.366 15.3059 102.449 15.3371 102.517 15.3918C102.584 15.4465 102.632 15.5217 102.652 15.6059V17.2142H102.699C103.282 15.769 104.074 15.093 105.496 15.093C106.405 15.093 107.314 15.4193 107.897 16.3285C108.433 17.1677 108.433 18.5896 108.433 19.6152V26.2585C108.419 26.3523 108.371 26.4375 108.298 26.4977C108.224 26.558 108.132 26.589 108.037 26.5848H105.985C105.799 26.5614 105.636 26.4217 105.612 26.2585V20.5244C105.612 19.3589 105.752 17.6805 104.33 17.6805C103.841 17.6805 103.375 18.0067 103.142 18.5196C102.862 19.1721 102.815 19.8017 102.815 20.5243V26.2122C102.802 26.3146 102.753 26.4088 102.676 26.4774C102.598 26.546 102.499 26.5843 102.396 26.5852L102.396 26.585ZM75.0068 21.5501C75.0068 22.3427 75.0302 23.0186 74.6339 23.7416C74.3076 24.3244 73.7947 24.674 73.2119 24.674C72.4194 24.674 71.9532 24.068 71.9532 23.1822C71.9532 21.4339 73.515 21.1076 75.0068 21.1076V21.5501ZM77.0814 26.5617C77.015 26.6197 76.932 26.6554 76.8443 26.6638C76.7565 26.6721 76.6683 26.6527 76.5921 26.6083C75.9161 26.0489 75.7765 25.7692 75.4033 25.233C74.2844 26.3749 73.4685 26.7249 72.0234 26.7249C70.2984 26.7249 68.9464 25.6526 68.9464 23.5314C68.9464 21.8531 69.8555 20.7342 71.1379 20.1747C72.2568 19.6854 73.8188 19.592 75.0073 19.4521V19.1957C75.0073 18.7064 75.0539 18.1235 74.7509 17.7039C74.4946 17.3309 74.0283 17.1678 73.6091 17.1678C72.8166 17.1678 72.1173 17.564 71.9541 18.4033C71.9075 18.5897 71.791 18.7762 71.6044 18.7762L69.6231 18.5664C69.46 18.5198 69.2735 18.4033 69.32 18.1469C69.7862 15.7226 71.9541 15 73.9121 15C74.9144 15 76.2197 15.2564 77.0123 16.0256C78.0146 16.958 77.9214 18.2171 77.9214 19.5687V22.7622C77.9214 23.7179 78.3176 24.1375 78.6906 24.6736C78.8304 24.86 78.8537 25.0932 78.6906 25.2097C78.2477 25.5593 77.5018 26.212 77.0822 26.5617L77.0814 26.5617ZM48.0837 21.5501C48.0837 22.3427 48.1071 23.0186 47.7108 23.7416C47.3845 24.3244 46.8716 24.674 46.2889 24.674C45.4963 24.674 45.0301 24.068 45.0301 23.1822C45.0301 21.4339 46.5919 21.1076 48.0837 21.1076V21.5501ZM50.135 26.5617C50.0686 26.6197 49.9856 26.6554 49.8978 26.6638C49.81 26.6721 49.7218 26.6527 49.6456 26.6083C48.9697 26.0489 48.83 25.7692 48.4569 25.233C47.338 26.3749 46.5221 26.7249 45.0769 26.7249C43.352 26.7249 42 25.6526 42 23.5314C42 21.8531 42.9091 20.7342 44.1915 20.1747C45.3103 19.6854 46.8723 19.592 48.0609 19.4521V19.1957C48.0609 18.7064 48.1075 18.1235 47.8045 17.7039C47.5481 17.3309 47.0819 17.1678 46.6627 17.1678C45.8701 17.1678 45.1708 17.564 45.0076 18.4033C44.9611 18.5897 44.8445 18.7762 44.658 18.7762L42.6767 18.5664C42.5135 18.5198 42.327 18.4033 42.3736 18.1469C42.8398 15.7226 45.0076 15 46.9657 15C47.968 15 49.2733 15.2564 50.0659 16.0256C51.0682 16.958 50.9749 18.2171 50.9749 19.5687V22.7622C50.9749 23.7179 51.3712 24.1375 51.7442 24.6736C51.884 24.86 51.9073 25.0932 51.7442 25.2097C51.3012 25.5593 50.5554 26.212 50.1358 26.5617L50.135 26.5617Z" fill="black"/>
</g>
<defs>
<clipPath id="clip0_62_26">
<rect width="66.4332" height="20" fill="white" transform="translate(42 15)"/>
</clipPath>
</defs>
</svg>
