<svg width="150" height="50" viewBox="0 0 150 50" fill="none" xmlns="http://www.w3.org/2000/svg">
<rect width="150" height="50" rx="5" fill="white"/>
<path d="M41.94 18.19C42.318 17.7543 42.6063 17.2482 42.7882 16.7007C42.9701 16.1533 43.0421 15.5753 43 15C41.8393 15.0937 40.762 15.6396 40 16.52C39.6351 16.942 39.3586 17.4329 39.1868 17.9636C39.015 18.4944 38.9515 19.0542 39 19.61C39.5661 19.6147 40.1258 19.4891 40.6356 19.2429C41.1454 18.9966 41.5917 18.6364 41.94 18.19ZM44.46 25.63C44.4667 24.8637 44.6685 24.1118 45.0464 23.4452C45.4244 22.7786 45.9659 22.2193 46.62 21.82C46.2072 21.2252 45.6615 20.7348 45.0262 20.3877C44.3909 20.0405 43.6835 19.8462 42.96 19.82C41.4 19.66 39.96 20.73 39.13 20.73C38.3 20.73 37.13 19.84 35.83 19.86C34.9801 19.888 34.152 20.1358 33.4264 20.5792C32.7008 21.0226 32.1026 21.6465 31.69 22.39C29.93 25.45 31.24 30 33 32.47C33.8 33.68 34.8 35.05 36.12 35C37.44 34.95 37.87 34.18 39.4 34.18C40.93 34.18 41.4 35 42.7 34.97C44 34.94 44.92 33.73 45.76 32.52C46.355 31.6415 46.8198 30.6816 47.14 29.67C46.3475 29.332 45.6713 28.7693 45.195 28.0513C44.7187 27.3333 44.4632 26.4916 44.46 25.63Z" fill="black"/>
<path d="M55.8914 29C55.8167 29 55.7467 28.972 55.6814 28.916C55.6254 28.86 55.5974 28.79 55.5974 28.706C55.5974 28.6687 55.6067 28.6267 55.6254 28.58L58.9994 19.55C59.0274 19.4567 59.0787 19.3773 59.1534 19.312C59.2374 19.2373 59.3494 19.2 59.4894 19.2H61.0154C61.1554 19.2 61.2627 19.2373 61.3374 19.312C61.412 19.3773 61.468 19.4567 61.5054 19.55L64.8794 28.58C64.8887 28.6267 64.8934 28.6687 64.8934 28.706C64.8934 28.79 64.8654 28.86 64.8094 28.916C64.7534 28.972 64.688 29 64.6134 29H63.3954C63.2647 29 63.1667 28.972 63.1014 28.916C63.0454 28.8507 63.008 28.79 62.9894 28.734L62.3314 27.026H58.1734L57.5154 28.734C57.4967 28.79 57.4547 28.8507 57.3894 28.916C57.3334 28.972 57.24 29 57.1094 29H55.8914ZM58.6634 25.416H61.8414L60.2454 21.09L58.6634 25.416ZM66.3824 31.66C66.2891 31.66 66.2097 31.6273 66.1444 31.562C66.0791 31.4967 66.0464 31.4173 66.0464 31.324V22.056C66.0464 21.9627 66.0791 21.8833 66.1444 21.818C66.2097 21.7527 66.2891 21.72 66.3824 21.72H67.4884C67.5911 21.72 67.6704 21.7527 67.7264 21.818C67.7917 21.8833 67.8244 21.9627 67.8244 22.056V22.616C68.0484 22.3173 68.3424 22.07 68.7064 21.874C69.0704 21.678 69.5231 21.58 70.0644 21.58C70.5591 21.58 70.9884 21.6593 71.3524 21.818C71.7164 21.9767 72.0197 22.2053 72.2624 22.504C72.5051 22.7933 72.6917 23.1387 72.8224 23.54C72.9531 23.9413 73.0277 24.3847 73.0464 24.87C73.0557 25.0287 73.0604 25.192 73.0604 25.36C73.0604 25.528 73.0557 25.696 73.0464 25.864C73.0371 26.3307 72.9671 26.7647 72.8364 27.166C72.7057 27.558 72.5144 27.9033 72.2624 28.202C72.0197 28.4913 71.7164 28.72 71.3524 28.888C70.9884 29.056 70.5591 29.14 70.0644 29.14C69.5604 29.14 69.1311 29.0513 68.7764 28.874C68.4217 28.6873 68.1324 28.4447 67.9084 28.146V31.324C67.9084 31.4173 67.8757 31.4967 67.8104 31.562C67.7544 31.6273 67.6751 31.66 67.5724 31.66H66.3824ZM69.5464 27.642C69.9477 27.642 70.2604 27.558 70.4844 27.39C70.7084 27.2127 70.8671 26.984 70.9604 26.704C71.0631 26.424 71.1237 26.116 71.1424 25.78C71.1611 25.5 71.1611 25.22 71.1424 24.94C71.1237 24.604 71.0631 24.296 70.9604 24.016C70.8671 23.736 70.7084 23.512 70.4844 23.344C70.2604 23.1667 69.9477 23.078 69.5464 23.078C69.1637 23.078 68.8511 23.1667 68.6084 23.344C68.3751 23.5213 68.2024 23.75 68.0904 24.03C67.9877 24.3007 67.9271 24.5807 67.9084 24.87C67.8991 25.038 67.8944 25.2153 67.8944 25.402C67.8944 25.5887 67.8991 25.7707 67.9084 25.948C67.9177 26.228 67.9831 26.4987 68.1044 26.76C68.2257 27.012 68.4031 27.222 68.6364 27.39C68.8697 27.558 69.1731 27.642 69.5464 27.642ZM74.982 31.66C74.8887 31.66 74.8093 31.6273 74.744 31.562C74.6787 31.4967 74.646 31.4173 74.646 31.324V22.056C74.646 21.9627 74.6787 21.8833 74.744 21.818C74.8093 21.7527 74.8887 21.72 74.982 21.72H76.088C76.1907 21.72 76.27 21.7527 76.326 21.818C76.3913 21.8833 76.424 21.9627 76.424 22.056V22.616C76.648 22.3173 76.942 22.07 77.306 21.874C77.67 21.678 78.1227 21.58 78.664 21.58C79.1587 21.58 79.588 21.6593 79.952 21.818C80.316 21.9767 80.6193 22.2053 80.862 22.504C81.1047 22.7933 81.2913 23.1387 81.422 23.54C81.5527 23.9413 81.6273 24.3847 81.646 24.87C81.6553 25.0287 81.66 25.192 81.66 25.36C81.66 25.528 81.6553 25.696 81.646 25.864C81.6367 26.3307 81.5667 26.7647 81.436 27.166C81.3053 27.558 81.114 27.9033 80.862 28.202C80.6193 28.4913 80.316 28.72 79.952 28.888C79.588 29.056 79.1587 29.14 78.664 29.14C78.16 29.14 77.7307 29.0513 77.376 28.874C77.0213 28.6873 76.732 28.4447 76.508 28.146V31.324C76.508 31.4173 76.4753 31.4967 76.41 31.562C76.354 31.6273 76.2747 31.66 76.172 31.66H74.982ZM78.146 27.642C78.5473 27.642 78.86 27.558 79.084 27.39C79.308 27.2127 79.4667 26.984 79.56 26.704C79.6627 26.424 79.7233 26.116 79.742 25.78C79.7607 25.5 79.7607 25.22 79.742 24.94C79.7233 24.604 79.6627 24.296 79.56 24.016C79.4667 23.736 79.308 23.512 79.084 23.344C78.86 23.1667 78.5473 23.078 78.146 23.078C77.7633 23.078 77.4507 23.1667 77.208 23.344C76.9747 23.5213 76.802 23.75 76.69 24.03C76.5873 24.3007 76.5267 24.5807 76.508 24.87C76.4987 25.038 76.494 25.2153 76.494 25.402C76.494 25.5887 76.4987 25.7707 76.508 25.948C76.5173 26.228 76.5827 26.4987 76.704 26.76C76.8253 27.012 77.0027 27.222 77.236 27.39C77.4693 27.558 77.7727 27.642 78.146 27.642ZM90.0008 29.14C89.1328 29.14 88.4048 29.014 87.8168 28.762C87.2382 28.5007 86.7948 28.1647 86.4868 27.754C86.1882 27.334 86.0295 26.8953 86.0108 26.438C86.0108 26.354 86.0388 26.284 86.0948 26.228C86.1508 26.172 86.2208 26.144 86.3048 26.144H87.5508C87.6722 26.144 87.7608 26.172 87.8168 26.228C87.8822 26.2747 87.9382 26.3353 87.9848 26.41C88.0408 26.5873 88.1482 26.7647 88.3068 26.942C88.4655 27.11 88.6802 27.25 88.9508 27.362C89.2308 27.474 89.5808 27.53 90.0008 27.53C90.6728 27.53 91.1722 27.418 91.4988 27.194C91.8348 26.97 92.0028 26.6667 92.0028 26.284C92.0028 26.0133 91.9142 25.7987 91.7368 25.64C91.5595 25.472 91.2842 25.3227 90.9108 25.192C90.5468 25.052 90.0615 24.9073 89.4548 24.758C88.7548 24.59 88.1668 24.3893 87.6908 24.156C87.2242 23.9133 86.8695 23.61 86.6268 23.246C86.3935 22.882 86.2768 22.42 86.2768 21.86C86.2768 21.3187 86.4215 20.838 86.7108 20.418C87.0095 19.998 87.4295 19.6667 87.9708 19.424C88.5215 19.1813 89.1748 19.06 89.9308 19.06C90.5375 19.06 91.0742 19.144 91.5408 19.312C92.0075 19.4707 92.3948 19.6853 92.7028 19.956C93.0108 20.2173 93.2442 20.502 93.4028 20.81C93.5708 21.1087 93.6595 21.4027 93.6688 21.692C93.6688 21.7667 93.6408 21.8367 93.5848 21.902C93.5382 21.958 93.4682 21.986 93.3748 21.986H92.0728C91.9982 21.986 91.9235 21.9673 91.8488 21.93C91.7742 21.8927 91.7135 21.8227 91.6668 21.72C91.6108 21.4307 91.4288 21.1833 91.1208 20.978C90.8128 20.7727 90.4162 20.67 89.9308 20.67C89.4268 20.67 89.0208 20.7633 88.7128 20.95C88.4048 21.1367 88.2508 21.426 88.2508 21.818C88.2508 22.0793 88.3255 22.2987 88.4748 22.476C88.6335 22.644 88.8808 22.7933 89.2168 22.924C89.5622 23.0547 90.0148 23.1947 90.5748 23.344C91.3682 23.5213 92.0168 23.7267 92.5208 23.96C93.0248 24.1933 93.3935 24.492 93.6268 24.856C93.8602 25.2107 93.9768 25.6633 93.9768 26.214C93.9768 26.83 93.8088 27.3573 93.4728 27.796C93.1462 28.2253 92.6842 28.5567 92.0868 28.79C91.4895 29.0233 90.7942 29.14 90.0008 29.14ZM98.7033 29C98.1433 29 97.6719 28.902 97.2893 28.706C96.9066 28.51 96.6219 28.2207 96.4353 27.838C96.2486 27.446 96.1553 26.9607 96.1553 26.382V23.204H95.0493C94.9559 23.204 94.8766 23.1713 94.8113 23.106C94.7459 23.0407 94.7133 22.9613 94.7133 22.868V22.056C94.7133 21.9627 94.7459 21.8833 94.8113 21.818C94.8766 21.7527 94.9559 21.72 95.0493 21.72H96.1553V19.396C96.1553 19.3027 96.1833 19.2233 96.2393 19.158C96.3046 19.0927 96.3886 19.06 96.4913 19.06H97.6253C97.7186 19.06 97.7979 19.0927 97.8633 19.158C97.9286 19.2233 97.9613 19.3027 97.9613 19.396V21.72H99.7113C99.8046 21.72 99.8839 21.7527 99.9493 21.818C100.015 21.8833 100.047 21.9627 100.047 22.056V22.868C100.047 22.9613 100.015 23.0407 99.9493 23.106C99.8839 23.1713 99.8046 23.204 99.7113 23.204H97.9613V26.242C97.9613 26.6247 98.0266 26.9233 98.1573 27.138C98.2973 27.3527 98.5353 27.46 98.8713 27.46H99.8373C99.9306 27.46 100.01 27.4927 100.075 27.558C100.141 27.6233 100.173 27.7027 100.173 27.796V28.664C100.173 28.7573 100.141 28.8367 100.075 28.902C100.01 28.9673 99.9306 29 99.8373 29H98.7033ZM104.635 29.14C103.889 29.14 103.259 29.0093 102.745 28.748C102.241 28.4867 101.854 28.118 101.583 27.642C101.322 27.166 101.173 26.6107 101.135 25.976C101.126 25.808 101.121 25.6027 101.121 25.36C101.121 25.1173 101.126 24.912 101.135 24.744C101.173 24.1 101.327 23.5447 101.597 23.078C101.877 22.602 102.269 22.2333 102.773 21.972C103.287 21.7107 103.907 21.58 104.635 21.58C105.363 21.58 105.979 21.7107 106.483 21.972C106.997 22.2333 107.389 22.602 107.659 23.078C107.939 23.5447 108.098 24.1 108.135 24.744C108.145 24.912 108.149 25.1173 108.149 25.36C108.149 25.6027 108.145 25.808 108.135 25.976C108.098 26.6107 107.944 27.166 107.673 27.642C107.412 28.118 107.025 28.4867 106.511 28.748C106.007 29.0093 105.382 29.14 104.635 29.14ZM104.635 27.754C105.13 27.754 105.513 27.6 105.783 27.292C106.054 26.9747 106.203 26.5127 106.231 25.906C106.241 25.766 106.245 25.584 106.245 25.36C106.245 25.136 106.241 24.954 106.231 24.814C106.203 24.2167 106.054 23.7593 105.783 23.442C105.513 23.1247 105.13 22.966 104.635 22.966C104.141 22.966 103.758 23.1247 103.487 23.442C103.217 23.7593 103.067 24.2167 103.039 24.814C103.03 24.954 103.025 25.136 103.025 25.36C103.025 25.584 103.03 25.766 103.039 25.906C103.067 26.5127 103.217 26.9747 103.487 27.292C103.758 27.6 104.141 27.754 104.635 27.754ZM110.036 29C109.943 29 109.864 28.9673 109.798 28.902C109.733 28.8367 109.7 28.7573 109.7 28.664V22.07C109.7 21.9673 109.733 21.8833 109.798 21.818C109.864 21.7527 109.943 21.72 110.036 21.72H111.17C111.264 21.72 111.343 21.7527 111.408 21.818C111.483 21.8833 111.52 21.9673 111.52 22.07V22.644C111.735 22.3453 112.01 22.1167 112.346 21.958C112.692 21.7993 113.088 21.72 113.536 21.72H114.11C114.213 21.72 114.292 21.7527 114.348 21.818C114.414 21.8833 114.446 21.9627 114.446 22.056V23.064C114.446 23.1573 114.414 23.2367 114.348 23.302C114.292 23.3673 114.213 23.4 114.11 23.4H113.018C112.57 23.4 112.22 23.526 111.968 23.778C111.726 24.03 111.604 24.3753 111.604 24.814V28.664C111.604 28.7573 111.572 28.8367 111.506 28.902C111.441 28.9673 111.357 29 111.254 29H110.036ZM118.579 29.14C117.543 29.14 116.721 28.8413 116.115 28.244C115.508 27.6467 115.181 26.7973 115.135 25.696C115.125 25.6027 115.121 25.486 115.121 25.346C115.121 25.1967 115.125 25.08 115.135 24.996C115.172 24.296 115.331 23.6893 115.611 23.176C115.9 22.6627 116.297 22.2707 116.801 22C117.305 21.72 117.897 21.58 118.579 21.58C119.335 21.58 119.969 21.7387 120.483 22.056C120.996 22.364 121.383 22.798 121.645 23.358C121.906 23.9087 122.037 24.548 122.037 25.276V25.57C122.037 25.6633 122.004 25.7427 121.939 25.808C121.873 25.8733 121.789 25.906 121.687 25.906H117.039C117.039 25.906 117.039 25.92 117.039 25.948C117.039 25.976 117.039 25.9993 117.039 26.018C117.048 26.3447 117.109 26.648 117.221 26.928C117.342 27.1987 117.515 27.418 117.739 27.586C117.972 27.754 118.247 27.838 118.565 27.838C118.826 27.838 119.045 27.8007 119.223 27.726C119.4 27.642 119.545 27.5487 119.657 27.446C119.769 27.3433 119.848 27.2593 119.895 27.194C119.979 27.082 120.044 27.0167 120.091 26.998C120.147 26.97 120.226 26.956 120.329 26.956H121.533C121.626 26.956 121.701 26.984 121.757 27.04C121.822 27.096 121.85 27.166 121.841 27.25C121.831 27.3993 121.752 27.5813 121.603 27.796C121.463 28.0107 121.257 28.2207 120.987 28.426C120.716 28.6313 120.375 28.804 119.965 28.944C119.563 29.0747 119.101 29.14 118.579 29.14ZM117.039 24.73H120.133V24.688C120.133 24.324 120.072 24.0067 119.951 23.736C119.829 23.4653 119.652 23.2507 119.419 23.092C119.185 22.9333 118.905 22.854 118.579 22.854C118.252 22.854 117.972 22.9333 117.739 23.092C117.505 23.2507 117.328 23.4653 117.207 23.736C117.095 24.0067 117.039 24.324 117.039 24.688V24.73Z" fill="black"/>
</svg>
