<svg width="151" height="50" viewBox="0 0 151 50" fill="none" xmlns="http://www.w3.org/2000/svg">
<path d="M138.191 0.0001625H12.4408C11.9824 0.0001625 11.5296 0.0001625 11.0724 0.0026625C10.6897 0.0051625 10.3101 0.012425 9.92371 0.0185375C9.08435 0.0284148 8.24697 0.102258 7.41884 0.239425C6.59187 0.379578 5.7908 0.643807 5.04274 1.02318C4.29559 1.40575 3.61289 1.90287 3.01942 2.4965C2.42284 3.08846 1.92554 3.77268 1.54665 4.52286C1.16671 5.27155 0.903262 6.07384 0.765398 6.90201C0.626225 7.72914 0.551334 8.56581 0.541398 9.40451C0.529798 9.78776 0.528573 10.1723 0.522461 10.5556V39.4484C0.528573 39.8365 0.529798 40.2125 0.541398 40.6008C0.551337 41.4394 0.626228 42.2761 0.765398 43.1032C0.902881 43.9318 1.16635 44.7346 1.54665 45.4835C1.92537 46.2313 2.42274 46.9127 3.01942 47.5014C3.61064 48.0977 4.29378 48.5951 5.04274 48.9748C5.7908 49.3552 6.59177 49.621 7.41884 49.7633C8.24711 49.8994 9.08441 49.9732 9.92371 49.9843C10.3101 49.9928 10.6897 49.9977 11.0724 49.9977C11.5295 50.0002 11.9825 50.0002 12.4408 50.0002H138.191C138.64 50.0002 139.097 50.0002 139.546 49.9977C139.927 49.9977 140.317 49.9928 140.698 49.9843C141.536 49.9738 142.372 49.8999 143.198 49.7633C144.028 49.62 144.832 49.3542 145.584 48.9748C146.332 48.5949 147.014 48.0975 147.605 47.5014C148.2 46.9104 148.699 46.2295 149.082 45.4835C149.46 44.734 149.72 43.9313 149.856 43.1032C149.995 42.276 150.073 41.4395 150.088 40.6008C150.093 40.2125 150.093 39.8365 150.093 39.4484C150.103 38.9943 150.103 38.5427 150.103 38.0812V11.9203C150.103 11.4626 150.103 11.0085 150.093 10.5556C150.093 10.1723 150.093 9.78776 150.088 9.40446C150.073 8.56569 149.995 7.72921 149.856 6.90196C149.72 6.07426 149.459 5.27204 149.082 4.52281C148.31 3.01916 147.087 1.79519 145.584 1.02306C144.832 0.644622 144.028 0.380463 143.198 0.239312C142.372 0.101541 141.536 0.0276722 140.698 0.0183625C140.317 0.0122625 139.927 0.0049375 139.546 0.0025C139.097 0 138.64 0.0001625 138.191 0.0001625Z" fill="#A6A6A6"/>
<path d="M11.0785 48.9062C10.6977 48.9062 10.326 48.9014 9.94818 48.8929C9.16541 48.8827 8.38447 48.8145 7.61176 48.689C6.89125 48.5649 6.19326 48.3341 5.54083 48.0041C4.89438 47.6769 4.30477 47.2478 3.79458 46.7334C3.27701 46.225 2.8461 45.6353 2.51894 44.9878C2.18818 44.336 1.95927 43.6374 1.84019 42.9163C1.7116 42.1414 1.64203 41.3579 1.63207 40.5725C1.62414 40.3089 1.61377 39.4311 1.61377 39.4311V10.5554C1.61377 10.5554 1.62482 9.69116 1.63213 9.43725C1.64166 8.6531 1.71083 7.87082 1.83904 7.09716C1.95834 6.37406 2.18743 5.67344 2.51837 5.01954C2.84433 4.37243 3.27284 3.78233 3.78729 3.2721C4.30117 2.75703 4.89267 2.32576 5.54022 1.99401C6.19115 1.66512 6.88781 1.43592 7.60687 1.31409C8.38212 1.1873 9.16577 1.11875 9.95126 1.10901L11.0792 1.09375H139.54L140.681 1.10963C141.46 1.11887 142.236 1.18681 143.004 1.31286C143.731 1.43622 144.434 1.66702 145.093 1.99768C146.39 2.66623 147.446 3.72395 148.112 5.02259C148.437 5.67197 148.663 6.36688 148.781 7.08374C148.91 7.86374 148.983 8.65217 148.998 9.44275C149.001 9.79675 149.001 10.177 149.001 10.5554C149.011 11.0242 149.011 11.4703 149.011 11.9202V38.081C149.011 38.5351 149.011 38.9783 149.001 39.425C149.001 39.8315 149.001 40.2039 148.997 40.5871C148.982 41.3636 148.911 42.138 148.783 42.904C148.666 43.6303 148.439 44.3344 148.108 44.9915C147.779 45.632 147.35 46.2166 146.838 46.7236C146.328 47.2409 145.737 47.6724 145.089 48.0018C144.433 48.3342 143.73 48.5659 143.004 48.689C142.232 48.8152 141.451 48.8834 140.668 48.8929C140.302 48.9014 139.918 48.9062 139.546 48.9062L138.191 48.9087L11.0785 48.9062Z" fill="black"/>
<path d="M31.4836 25.3759C31.497 24.3326 31.7742 23.3096 32.2892 22.4022C32.8042 21.4947 33.5404 20.7323 34.4293 20.1858C33.8646 19.3794 33.1197 18.7157 32.2536 18.2475C31.3876 17.7793 30.4243 17.5195 29.4403 17.4887C27.3413 17.2684 25.3063 18.7448 24.2367 18.7448C23.1464 18.7448 21.4995 17.5106 19.7261 17.5471C18.579 17.5841 17.4611 17.9177 16.4812 18.5153C15.5014 19.1129 14.693 19.9541 14.1349 20.9569C11.7174 25.1424 13.5207 31.2938 15.8364 34.677C16.9951 36.3337 18.3492 38.1843 20.121 38.1187C21.8548 38.0467 22.5023 37.013 24.5952 37.013C26.6687 37.013 27.2762 38.1187 29.084 38.0769C30.9444 38.0467 32.1166 36.4129 33.2346 34.7405C34.0671 33.56 34.7077 32.2554 35.1326 30.8749C34.0517 30.4177 33.1293 29.6525 32.4804 28.6746C31.8315 27.6967 31.4848 26.5495 31.4836 25.3759Z" fill="white"/>
<path d="M28.0691 15.2637C29.0835 14.0459 29.5832 12.4807 29.4622 10.9004C27.9124 11.0632 26.4808 11.8039 25.4527 12.9749C24.9501 13.547 24.5651 14.2125 24.3198 14.9335C24.0744 15.6545 23.9736 16.4167 24.0231 17.1766C24.7983 17.1846 25.5652 17.0166 26.266 16.6852C26.9668 16.3539 27.5833 15.8678 28.0691 15.2637Z" fill="white"/>
<path d="M53.4003 33.9246H47.4836L46.0627 38.1202H43.5566L49.1608 22.5977H51.7646L57.3688 38.1202H54.82L53.4003 33.9246ZM48.0964 31.9886H52.7864L50.4744 25.1795H50.4097L48.0964 31.9886Z" fill="white"/>
<path d="M69.4721 32.4623C69.4721 35.9792 67.5898 38.2387 64.7492 38.2387C64.0296 38.2763 63.314 38.1106 62.6842 37.7604C62.0545 37.4102 61.5361 36.8898 61.1884 36.2587H61.1346V41.8641H58.8116V26.8031H61.0602V28.6854H61.1029C61.4666 28.0574 61.9938 27.5396 62.6283 27.1873C63.2629 26.835 63.9811 26.6613 64.7065 26.6847C67.5787 26.6847 69.4721 28.9552 69.4721 32.4623ZM67.0844 32.4623C67.0844 30.1711 65.9003 28.6647 64.0937 28.6647C62.3188 28.6647 61.1249 30.2028 61.1249 32.4623C61.1249 34.7426 62.3188 36.2697 64.0937 36.2697C65.9003 36.2697 67.0844 34.7743 67.0844 32.4623Z" fill="white"/>
<path d="M81.9281 32.4623C81.9281 35.9791 80.0458 38.2387 77.2052 38.2387C76.4857 38.2763 75.77 38.1105 75.1403 37.7604C74.5106 37.4102 73.9922 36.8898 73.6445 36.2587H73.5907V41.8641H71.2677V26.8031H73.5162V28.6854H73.559C73.9226 28.0573 74.4498 27.5396 75.0843 27.1873C75.7189 26.835 76.4371 26.6613 77.1625 26.6847C80.0348 26.6847 81.9281 28.9552 81.9281 32.4623ZM79.5404 32.4623C79.5404 30.171 78.3563 28.6647 76.5497 28.6647C74.7748 28.6647 73.581 30.2028 73.581 32.4623C73.581 34.7426 74.7748 36.2697 76.5497 36.2697C78.3564 36.2697 79.5404 34.7743 79.5404 32.4623Z" fill="white"/>
<path d="M90.1606 33.7952C90.3327 35.3345 91.8281 36.3452 93.8715 36.3452C95.8295 36.3452 97.2382 35.3345 97.2382 33.9465C97.2382 32.7417 96.3886 32.0203 94.3769 31.5259L92.3652 31.0413C89.5148 30.3528 88.1916 29.0198 88.1916 26.8567C88.1916 24.1785 90.5256 22.3389 93.8398 22.3389C97.1198 22.3389 99.3683 24.1785 99.444 26.8567H97.099C96.9586 25.3076 95.6781 24.3726 93.8068 24.3726C91.9354 24.3726 90.6549 25.3186 90.6549 26.6956C90.6549 27.793 91.4728 28.4387 93.4735 28.9331L95.1837 29.353C98.3685 30.1062 99.6918 31.3855 99.6918 33.656C99.6918 36.56 97.3785 38.3789 93.6993 38.3789C90.257 38.3789 87.9327 36.6027 87.7826 33.7951L90.1606 33.7952Z" fill="white"/>
<path d="M104.705 24.1248V26.803H106.857V28.6426H104.705V34.8816C104.705 35.8508 105.136 36.3025 106.082 36.3025C106.338 36.298 106.593 36.2801 106.846 36.2487V38.0774C106.421 38.1568 105.989 38.1928 105.556 38.1848C103.265 38.1848 102.371 37.3242 102.371 35.1294V28.6426H100.726V26.803H102.371V24.1248H104.705Z" fill="white"/>
<path d="M108.104 32.4622C108.104 28.9014 110.201 26.6638 113.471 26.6638C116.752 26.6638 118.84 28.9013 118.84 32.4622C118.84 36.0327 116.763 38.2605 113.471 38.2605C110.18 38.2605 108.104 36.0327 108.104 32.4622ZM116.473 32.4622C116.473 30.0195 115.354 28.5779 113.471 28.5779C111.589 28.5779 110.471 30.0305 110.471 32.4622C110.471 34.9145 111.589 36.3452 113.471 36.3452C115.354 36.3452 116.473 34.9145 116.473 32.4622Z" fill="white"/>
<path d="M120.755 26.803H122.971V28.7293H123.024C123.174 28.1277 123.527 27.596 124.022 27.2236C124.518 26.8513 125.127 26.6609 125.747 26.6846C126.014 26.6836 126.281 26.7127 126.542 26.7713V28.9441C126.205 28.8408 125.852 28.7934 125.499 28.8037C125.161 28.79 124.825 28.8495 124.513 28.9782C124.2 29.1068 123.919 29.3014 123.689 29.5488C123.459 29.7962 123.286 30.0904 123.18 30.4112C123.075 30.732 123.04 31.0719 123.078 31.4075V38.1201H120.755L120.755 26.803Z" fill="white"/>
<path d="M137.253 34.7961C136.94 36.8506 134.94 38.2605 132.38 38.2605C129.088 38.2605 127.044 36.0547 127.044 32.5159C127.044 28.9661 129.099 26.6638 132.282 26.6638C135.413 26.6638 137.382 28.8147 137.382 32.2461V33.042H129.389V33.1824C129.352 33.5989 129.404 34.0185 129.542 34.4133C129.68 34.8081 129.9 35.169 130.188 35.4722C130.476 35.7754 130.825 36.0139 131.212 36.1717C131.599 36.3296 132.016 36.4033 132.434 36.3879C132.982 36.4394 133.533 36.3122 134.004 36.0254C134.475 35.7386 134.841 35.3075 135.047 34.7961L137.253 34.7961ZM129.4 31.4185H135.058C135.079 31.044 135.022 30.6692 134.891 30.3177C134.76 29.9662 134.558 29.6455 134.298 29.3758C134.037 29.1061 133.723 28.8932 133.377 28.7504C133.03 28.6076 132.657 28.5381 132.282 28.5461C131.904 28.5439 131.529 28.6166 131.179 28.76C130.829 28.9034 130.511 29.1148 130.243 29.3818C129.975 29.6488 129.762 29.9663 129.618 30.3159C129.473 30.6654 129.399 31.0402 129.4 31.4185Z" fill="white"/>
<path d="M47.8052 10.9137C48.2922 10.8788 48.7809 10.9524 49.236 11.1292C49.6912 11.3059 50.1014 11.5815 50.4371 11.9361C50.7729 12.2906 51.0257 12.7152 51.1775 13.1793C51.3292 13.6434 51.3761 14.1354 51.3147 14.6198C51.3147 17.0026 50.0269 18.3723 47.8052 18.3723H45.1111V10.9137H47.8052ZM46.2695 17.3175H47.6758C48.0238 17.3383 48.372 17.2812 48.6952 17.1505C49.0184 17.0197 49.3083 16.8185 49.544 16.5616C49.7796 16.3046 49.9549 15.9983 50.0573 15.6651C50.1596 15.3318 50.1863 14.9799 50.1355 14.635C50.1826 14.2914 50.1532 13.9417 50.0493 13.6109C49.9454 13.2801 49.7696 12.9763 49.5345 12.7214C49.2994 12.4665 49.0109 12.2667 48.6895 12.1364C48.3682 12.0061 48.022 11.9485 47.6758 11.9677H46.2695V17.3175Z" fill="white"/>
<path d="M52.6233 15.5552C52.5879 15.1853 52.6302 14.8121 52.7475 14.4595C52.8648 14.107 53.0545 13.7828 53.3044 13.5078C53.5544 13.2328 53.859 13.0131 54.1988 12.8628C54.5386 12.7124 54.9061 12.6348 55.2777 12.6348C55.6493 12.6348 56.0168 12.7124 56.3566 12.8628C56.6964 13.0131 57.001 13.2328 57.251 13.5078C57.5009 13.7828 57.6906 14.107 57.8079 14.4595C57.9252 14.8121 57.9675 15.1853 57.9321 15.5552C57.9682 15.9255 57.9264 16.2992 57.8094 16.6524C57.6924 17.0056 57.5028 17.3303 57.2528 17.6058C57.0028 17.8814 56.6979 18.1015 56.3578 18.2522C56.0176 18.4029 55.6497 18.4807 55.2777 18.4807C54.9057 18.4807 54.5377 18.4029 54.1976 18.2522C53.8574 18.1015 53.5526 17.8814 53.3026 17.6058C53.0526 17.3303 52.863 17.0056 52.746 16.6524C52.629 16.2992 52.5872 15.9255 52.6233 15.5552ZM56.7895 15.5552C56.7895 14.3352 56.2414 13.6217 55.2795 13.6217C54.3139 13.6217 53.7708 14.3352 53.7708 15.5553C53.7708 16.7851 54.314 17.4931 55.2795 17.4931C56.2414 17.4931 56.7895 16.7802 56.7895 15.5552Z" fill="white"/>
<path d="M64.989 18.3721H63.8367L62.6733 14.2266H62.5855L61.427 18.3721H60.2856L58.7341 12.7434H59.8608L60.8691 17.0384H60.9522L62.1094 12.7434H63.1751L64.3323 17.0384H64.4202L65.4236 12.7434H66.5344L64.989 18.3721Z" fill="white"/>
<path d="M67.8394 12.7433H68.9087V13.6375H68.9917C69.1325 13.3164 69.37 13.0471 69.6711 12.8674C69.9722 12.6876 70.3219 12.6063 70.6714 12.6347C70.9453 12.6141 71.2203 12.6554 71.476 12.7555C71.7318 12.8556 71.9617 13.012 72.1488 13.2131C72.3359 13.4141 72.4754 13.6547 72.5569 13.917C72.6384 14.1793 72.6598 14.4565 72.6196 14.7282V18.3719H71.5088V15.0071C71.5088 14.1026 71.1157 13.6528 70.2942 13.6528C70.1082 13.6441 69.9226 13.6758 69.7501 13.7455C69.5775 13.8153 69.422 13.9216 69.2944 14.0571C69.1667 14.1926 69.0699 14.354 69.0105 14.5305C68.9511 14.7069 68.9305 14.8941 68.9502 15.0792V18.372H67.8394L67.8394 12.7433Z" fill="white"/>
<path d="M74.3896 10.5461H75.5005V18.3721H74.3896V10.5461Z" fill="white"/>
<path d="M77.0447 15.5553C77.0093 15.1854 77.0517 14.8122 77.169 14.4596C77.2863 14.107 77.4761 13.7828 77.726 13.5078C77.976 13.2328 78.2806 13.0131 78.6205 12.8628C78.9603 12.7124 79.3278 12.6348 79.6994 12.6348C80.071 12.6348 80.4385 12.7124 80.7784 12.8628C81.1182 13.0131 81.4229 13.2328 81.6728 13.5078C81.9228 13.7828 82.1125 14.107 82.2298 14.4596C82.3472 14.8122 82.3895 15.1854 82.3541 15.5553C82.3902 15.9256 82.3483 16.2994 82.2313 16.6525C82.1143 17.0057 81.9246 17.3304 81.6746 17.606C81.4246 17.8815 81.1197 18.1016 80.7795 18.2523C80.4394 18.4029 80.0715 18.4808 79.6994 18.4808C79.3274 18.4808 78.9595 18.4029 78.6193 18.2523C78.2791 18.1016 77.9742 17.8815 77.7242 17.606C77.4742 17.3304 77.2846 17.0057 77.1676 16.6525C77.0505 16.2994 77.0087 15.9256 77.0447 15.5553ZM81.2109 15.5553C81.2109 14.3353 80.6628 13.6218 79.7009 13.6218C78.7354 13.6218 78.1922 14.3353 78.1922 15.5554C78.1922 16.7852 78.7354 17.4932 79.7009 17.4932C80.6629 17.4932 81.2109 16.7803 81.2109 15.5553Z" fill="white"/>
<path d="M83.5236 16.7803C83.5236 15.7671 84.278 15.183 85.6171 15.1L87.1417 15.0121V14.5262C87.1417 13.9318 86.7487 13.5961 85.9894 13.5961C85.3693 13.5961 84.9396 13.8237 84.8163 14.2217H83.7408C83.8544 13.2549 84.7638 12.6348 86.0406 12.6348C87.4518 12.6348 88.2477 13.3373 88.2477 14.5262V18.3721H87.1783V17.5811H87.0905C86.9121 17.8648 86.6616 18.0961 86.3645 18.2514C86.0675 18.4066 85.7346 18.4803 85.3998 18.4648C85.1635 18.4894 84.9247 18.4642 84.6987 18.3908C84.4728 18.3174 84.2647 18.1975 84.0879 18.0388C83.9112 17.8801 83.7696 17.6861 83.6724 17.4693C83.5752 17.2526 83.5245 17.0178 83.5236 16.7803ZM87.1417 16.2993V15.8287L85.7672 15.9166C84.9921 15.9685 84.6405 16.2322 84.6405 16.7284C84.6405 17.235 85.0799 17.5298 85.6842 17.5298C85.8613 17.5477 86.0401 17.5298 86.2102 17.4772C86.3802 17.4246 86.5379 17.3383 86.6738 17.2235C86.8098 17.1087 86.9213 16.9677 87.0017 16.809C87.0821 16.6502 87.1297 16.4769 87.1417 16.2993Z" fill="white"/>
<path d="M89.7076 15.5553C89.7076 13.7768 90.622 12.65 92.0441 12.65C92.3958 12.6338 92.745 12.7181 93.0506 12.893C93.3563 13.0678 93.6058 13.3261 93.7701 13.6375H93.8532V10.5461H94.964V18.3721H93.8995V17.4828H93.8117C93.6346 17.7921 93.3764 18.0472 93.0648 18.2203C92.7532 18.3934 92.4003 18.478 92.0441 18.4648C90.6122 18.4649 89.7076 17.3382 89.7076 15.5553ZM90.8551 15.5553C90.8551 16.7492 91.4179 17.4676 92.3591 17.4676C93.2953 17.4676 93.8739 16.7388 93.8739 15.5602C93.8739 14.3871 93.2892 13.648 92.3591 13.648C91.424 13.648 90.8551 14.3712 90.8551 15.5553Z" fill="white"/>
<path d="M99.5599 15.5552C99.5245 15.1853 99.5668 14.8121 99.6841 14.4595C99.8014 14.107 99.9911 13.7828 100.241 13.5078C100.491 13.2328 100.796 13.0131 101.135 12.8628C101.475 12.7124 101.843 12.6348 102.214 12.6348C102.586 12.6348 102.953 12.7124 103.293 12.8628C103.633 13.0131 103.938 13.2328 104.188 13.5078C104.438 13.7828 104.627 14.107 104.745 14.4595C104.862 14.8121 104.904 15.1853 104.869 15.5552C104.905 15.9255 104.863 16.2992 104.746 16.6524C104.629 17.0056 104.439 17.3303 104.189 17.6058C103.939 17.8814 103.635 18.1015 103.294 18.2522C102.954 18.4029 102.586 18.4807 102.214 18.4807C101.842 18.4807 101.474 18.4029 101.134 18.2522C100.794 18.1015 100.489 17.8814 100.239 17.6058C99.9892 17.3303 99.7996 17.0056 99.6827 16.6524C99.5657 16.2992 99.5239 15.9255 99.5599 15.5552ZM103.726 15.5552C103.726 14.3352 103.178 13.6217 102.216 13.6217C101.251 13.6217 100.707 14.3352 100.707 15.5553C100.707 16.7851 101.251 17.4931 102.216 17.4931C103.178 17.4931 103.726 16.7802 103.726 15.5552Z" fill="white"/>
<path d="M106.359 12.7433H107.429V13.6375H107.512C107.652 13.3164 107.89 13.0471 108.191 12.8674C108.492 12.6876 108.842 12.6063 109.191 12.6347C109.465 12.6141 109.74 12.6554 109.996 12.7555C110.252 12.8556 110.482 13.012 110.669 13.2131C110.856 13.4141 110.995 13.6547 111.077 13.917C111.158 14.1793 111.18 14.4565 111.14 14.7282V18.3719H110.029V15.0071C110.029 14.1026 109.636 13.6528 108.814 13.6528C108.628 13.6441 108.443 13.6758 108.27 13.7455C108.097 13.8153 107.942 13.9216 107.814 14.0571C107.687 14.1926 107.59 14.354 107.53 14.5305C107.471 14.7069 107.45 14.8941 107.47 15.0792V18.372H106.359V12.7433Z" fill="white"/>
<path d="M117.416 11.342V12.769H118.636V13.7047H117.416V16.599C117.416 17.1886 117.659 17.4468 118.212 17.4468C118.354 17.4463 118.495 17.4378 118.636 17.4211V18.3464C118.436 18.3821 118.234 18.4011 118.032 18.4032C116.796 18.4032 116.304 17.9686 116.304 16.8834V13.7047H115.411V12.769H116.304V11.342H117.416Z" fill="white"/>
<path d="M120.153 10.5461H121.254V13.648H121.342C121.49 13.3238 121.734 13.0531 122.041 12.8726C122.348 12.6922 122.703 12.6108 123.058 12.6397C123.331 12.6248 123.603 12.6703 123.856 12.7729C124.109 12.8754 124.336 13.0325 124.521 13.2329C124.706 13.4334 124.845 13.6722 124.927 13.9323C125.009 14.1925 125.033 14.4676 124.997 14.738V18.3721H123.885V15.0121C123.885 14.113 123.466 13.6577 122.681 13.6577C122.49 13.642 122.298 13.6683 122.119 13.7346C121.939 13.8009 121.776 13.9057 121.641 14.0416C121.506 14.1776 121.402 14.3413 121.337 14.5215C121.272 14.7017 121.247 14.8939 121.264 15.0847V18.3721H120.153L120.153 10.5461Z" fill="white"/>
<path d="M131.474 16.8524C131.323 17.3668 130.996 17.8118 130.55 18.1095C130.104 18.4072 129.568 18.5386 129.035 18.4808C128.664 18.4906 128.296 18.4196 127.955 18.2726C127.614 18.1257 127.31 17.9065 127.062 17.63C126.815 17.3536 126.631 17.0267 126.522 16.6719C126.414 16.3171 126.384 15.943 126.435 15.5755C126.386 15.2069 126.416 14.832 126.524 14.4762C126.632 14.1203 126.815 13.7919 127.062 13.513C127.308 13.2342 127.611 13.0115 127.95 12.86C128.29 12.7085 128.658 12.6317 129.03 12.6349C130.596 12.6349 131.541 13.7049 131.541 15.4724V15.86H127.567V15.9222C127.549 16.1288 127.575 16.3367 127.643 16.5326C127.71 16.7286 127.818 16.9082 127.959 17.06C128.101 17.2118 128.272 17.3325 128.462 17.4142C128.653 17.496 128.858 17.537 129.066 17.5347C129.331 17.5666 129.6 17.5188 129.839 17.3973C130.077 17.2758 130.274 17.0861 130.405 16.8523L131.474 16.8524ZM127.567 15.0384H130.41C130.424 14.8495 130.398 14.6598 130.334 14.4814C130.27 14.303 130.17 14.1399 130.04 14.0025C129.909 13.8652 129.751 13.7567 129.577 13.684C129.402 13.6113 129.213 13.576 129.024 13.5803C128.832 13.5779 128.641 13.614 128.463 13.6864C128.285 13.7588 128.124 13.8661 127.988 14.002C127.852 14.1379 127.745 14.2996 127.672 14.4776C127.6 14.6556 127.564 14.8463 127.567 15.0384Z" fill="white"/>
</svg>
