<svg width="32" height="32" viewBox="0 0 32 32" fill="none" xmlns="http://www.w3.org/2000/svg">
<path d="M25.5735 7.65872C23.8736 6.89211 22.0515 6.32548 20.1461 6.00328C20.1291 6.00002 20.1115 6.00212 20.0958 6.00929C20.0801 6.01645 20.067 6.02833 20.0583 6.04328C19.825 6.45325 19.565 6.98766 19.3828 7.40985C17.3619 7.10791 15.3074 7.10791 13.2865 7.40985C13.0836 6.94195 12.8547 6.48572 12.601 6.04328C12.5924 6.02815 12.5794 6.016 12.5637 6.00846C12.548 6.00091 12.5304 5.99833 12.5132 6.00106C10.6089 6.32326 8.78682 6.88989 7.08582 7.65761C7.07119 7.66375 7.05878 7.67422 7.05027 7.68761C3.59272 12.7706 2.645 17.7281 3.11053 22.6233C3.11182 22.6353 3.11554 22.6469 3.12146 22.6574C3.12739 22.6679 3.13538 22.6771 3.14497 22.6844C5.16305 24.1537 7.41395 25.2729 9.80342 25.9953C9.82008 26.0004 9.83789 26.0004 9.85454 25.9953C9.87119 25.9901 9.8859 25.9801 9.89675 25.9664C10.41 25.2776 10.8678 24.5498 11.2589 23.7854C11.2822 23.741 11.26 23.6877 11.2133 23.6699C10.4956 23.3996 9.80018 23.0734 9.13346 22.6944C9.12148 22.6876 9.11139 22.6779 9.10409 22.6662C9.09678 22.6545 9.0925 22.6411 9.09162 22.6274C9.09073 22.6136 9.09329 22.5998 9.09904 22.5873C9.10479 22.5747 9.11357 22.5638 9.12458 22.5555C9.26457 22.4522 9.40456 22.3444 9.53788 22.2367C9.54988 22.227 9.56434 22.2208 9.57964 22.2188C9.59494 22.2169 9.61049 22.2192 9.62454 22.2255C13.9876 24.1854 18.7128 24.1854 23.0248 22.2255C23.0389 22.2188 23.0546 22.2162 23.0701 22.218C23.0856 22.2197 23.1003 22.2258 23.1125 22.2355C23.2459 22.3444 23.3848 22.4522 23.5259 22.5555C23.537 22.5637 23.5459 22.5744 23.5518 22.5869C23.5578 22.5993 23.5605 22.613 23.5599 22.6268C23.5592 22.6405 23.5551 22.6539 23.548 22.6657C23.5409 22.6775 23.531 22.6874 23.5192 22.6944C22.8548 23.0766 22.1637 23.3999 21.4382 23.6688C21.4271 23.6728 21.4169 23.6792 21.4084 23.6875C21.4 23.6958 21.3933 23.7058 21.389 23.7168C21.3847 23.7278 21.3828 23.7397 21.3834 23.7515C21.3841 23.7633 21.3872 23.7749 21.3927 23.7854C21.7926 24.5487 22.2504 25.2753 22.7537 25.9653C22.7641 25.9795 22.7787 25.99 22.7954 25.9956C22.8121 26.0012 22.8301 26.0015 22.847 25.9964C25.2406 25.2761 27.4952 24.1563 29.5155 22.6844C29.5253 22.6775 29.5336 22.6686 29.5397 22.6582C29.5459 22.6479 29.5497 22.6364 29.551 22.6244C30.1065 16.9648 28.62 12.0473 25.6079 7.68983C25.6006 7.67567 25.5883 7.66463 25.5735 7.65872ZM11.9111 19.6424C10.5978 19.6424 9.51455 18.4547 9.51455 16.9981C9.51455 15.5404 10.5767 14.3538 11.9111 14.3538C13.2554 14.3538 14.3287 15.5504 14.3076 16.9981C14.3076 18.4558 13.2454 19.6424 11.9111 19.6424ZM20.7716 19.6424C19.4572 19.6424 18.3751 18.4547 18.3751 16.9981C18.3751 15.5404 19.4361 14.3538 20.7716 14.3538C22.1159 14.3538 23.1892 15.5504 23.1681 16.9981C23.1681 18.4558 22.1171 19.6424 20.7716 19.6424Z" fill="white"/>
</svg>
