<svg width="150" height="50" viewBox="0 0 150 50" fill="none" xmlns="http://www.w3.org/2000/svg">
<rect width="150" height="50" rx="5" fill="white"/>
<path d="M57.8061 23.498H62.7201C62.7481 23.61 62.7714 23.7453 62.7901 23.904C62.8088 24.0627 62.8181 24.2213 62.8181 24.38C62.8181 25.024 62.7201 25.6307 62.5241 26.2C62.3281 26.7693 62.0201 27.278 61.6001 27.726C61.1521 28.202 60.6154 28.5707 59.9901 28.832C59.3648 29.0933 58.6508 29.224 57.8481 29.224C57.1201 29.224 56.4341 29.0933 55.7901 28.832C55.1461 28.5707 54.5861 28.2067 54.1101 27.74C53.6341 27.2733 53.2561 26.7227 52.9761 26.088C52.6961 25.444 52.5561 24.744 52.5561 23.988C52.5561 23.232 52.6961 22.5367 52.9761 21.902C53.2561 21.258 53.6341 20.7027 54.1101 20.236C54.5861 19.7693 55.1461 19.4053 55.7901 19.144C56.4341 18.8827 57.1201 18.752 57.8481 18.752C58.6601 18.752 59.3834 18.892 60.0181 19.172C60.6621 19.452 61.2128 19.8393 61.6701 20.334L60.3681 21.608C60.0414 21.2627 59.6774 21.0013 59.2761 20.824C58.8748 20.6373 58.3941 20.544 57.8341 20.544C57.3768 20.544 56.9428 20.628 56.5321 20.796C56.1214 20.9547 55.7621 21.1833 55.4541 21.482C55.1461 21.7807 54.8988 22.1447 54.7121 22.574C54.5348 22.994 54.4461 23.4653 54.4461 23.988C54.4461 24.5107 54.5348 24.9867 54.7121 25.416C54.8988 25.836 55.1461 26.1953 55.4541 26.494C55.7714 26.7927 56.1354 27.026 56.5461 27.194C56.9568 27.3527 57.3954 27.432 57.8621 27.432C58.3941 27.432 58.8421 27.3573 59.2061 27.208C59.5794 27.0493 59.8968 26.8487 60.1581 26.606C60.3448 26.438 60.5034 26.228 60.6341 25.976C60.7741 25.7147 60.8814 25.4253 60.9561 25.108H57.8061V23.498ZM67.3357 21.916C67.8677 21.916 68.353 22.0093 68.7917 22.196C69.2397 22.3733 69.6224 22.6253 69.9397 22.952C70.2664 23.2693 70.5184 23.652 70.6957 24.1C70.8824 24.548 70.9757 25.038 70.9757 25.57C70.9757 26.102 70.8824 26.592 70.6957 27.04C70.5184 27.488 70.2664 27.8753 69.9397 28.202C69.6224 28.5193 69.2397 28.7713 68.7917 28.958C68.353 29.1353 67.8677 29.224 67.3357 29.224C66.8037 29.224 66.3137 29.1353 65.8657 28.958C65.427 28.7713 65.0444 28.5193 64.7177 28.202C64.4004 27.8753 64.1484 27.488 63.9617 27.04C63.7844 26.592 63.6957 26.102 63.6957 25.57C63.6957 25.038 63.7844 24.548 63.9617 24.1C64.1484 23.652 64.4004 23.2693 64.7177 22.952C65.0444 22.6253 65.427 22.3733 65.8657 22.196C66.3137 22.0093 66.8037 21.916 67.3357 21.916ZM67.3357 27.53C67.569 27.53 67.793 27.488 68.0077 27.404C68.2317 27.3107 68.4277 27.18 68.5957 27.012C68.7637 26.844 68.8944 26.6387 68.9877 26.396C69.0904 26.1533 69.1417 25.878 69.1417 25.57C69.1417 25.262 69.0904 24.9867 68.9877 24.744C68.8944 24.5013 68.7637 24.296 68.5957 24.128C68.4277 23.96 68.2317 23.834 68.0077 23.75C67.793 23.6567 67.569 23.61 67.3357 23.61C67.093 23.61 66.8644 23.6567 66.6497 23.75C66.435 23.834 66.2437 23.96 66.0757 24.128C65.9077 24.296 65.7724 24.5013 65.6697 24.744C65.5764 24.9867 65.5297 25.262 65.5297 25.57C65.5297 25.878 65.5764 26.1533 65.6697 26.396C65.7724 26.6387 65.9077 26.844 66.0757 27.012C66.2437 27.18 66.435 27.3107 66.6497 27.404C66.8644 27.488 67.093 27.53 67.3357 27.53ZM75.4021 21.916C75.9341 21.916 76.4195 22.0093 76.8581 22.196C77.3061 22.3733 77.6888 22.6253 78.0061 22.952C78.3328 23.2693 78.5848 23.652 78.7621 24.1C78.9488 24.548 79.0421 25.038 79.0421 25.57C79.0421 26.102 78.9488 26.592 78.7621 27.04C78.5848 27.488 78.3328 27.8753 78.0061 28.202C77.6888 28.5193 77.3061 28.7713 76.8581 28.958C76.4195 29.1353 75.9341 29.224 75.4021 29.224C74.8701 29.224 74.3801 29.1353 73.9321 28.958C73.4935 28.7713 73.1108 28.5193 72.7841 28.202C72.4668 27.8753 72.2148 27.488 72.0281 27.04C71.8508 26.592 71.7621 26.102 71.7621 25.57C71.7621 25.038 71.8508 24.548 72.0281 24.1C72.2148 23.652 72.4668 23.2693 72.7841 22.952C73.1108 22.6253 73.4935 22.3733 73.9321 22.196C74.3801 22.0093 74.8701 21.916 75.4021 21.916ZM75.4021 27.53C75.6355 27.53 75.8595 27.488 76.0741 27.404C76.2981 27.3107 76.4941 27.18 76.6621 27.012C76.8301 26.844 76.9608 26.6387 77.0541 26.396C77.1568 26.1533 77.2081 25.878 77.2081 25.57C77.2081 25.262 77.1568 24.9867 77.0541 24.744C76.9608 24.5013 76.8301 24.296 76.6621 24.128C76.4941 23.96 76.2981 23.834 76.0741 23.75C75.8595 23.6567 75.6355 23.61 75.4021 23.61C75.1595 23.61 74.9308 23.6567 74.7161 23.75C74.5015 23.834 74.3101 23.96 74.1421 24.128C73.9741 24.296 73.8388 24.5013 73.7361 24.744C73.6428 24.9867 73.5961 25.262 73.5961 25.57C73.5961 25.878 73.6428 26.1533 73.7361 26.396C73.8388 26.6387 73.9741 26.844 74.1421 27.012C74.3101 27.18 74.5015 27.3107 74.7161 27.404C74.9308 27.488 75.1595 27.53 75.4021 27.53ZM83.3845 32.248C82.8992 32.248 82.4652 32.1827 82.0825 32.052C81.7092 31.9307 81.3825 31.7673 81.1025 31.562C80.8225 31.366 80.5892 31.1467 80.4025 30.904C80.2159 30.6613 80.0805 30.4187 79.9965 30.176L81.7465 29.476C81.8772 29.84 82.0919 30.12 82.3905 30.316C82.6892 30.5213 83.0205 30.624 83.3845 30.624C83.9632 30.624 84.4205 30.442 84.7565 30.078C85.0925 29.7233 85.2605 29.224 85.2605 28.58V28.104H85.1485C84.9339 28.4027 84.6492 28.6407 84.2945 28.818C83.9492 28.986 83.5385 29.07 83.0625 29.07C82.6519 29.07 82.2505 28.986 81.8585 28.818C81.4759 28.65 81.1352 28.412 80.8365 28.104C80.5379 27.7867 80.2952 27.4087 80.1085 26.97C79.9219 26.5313 79.8285 26.0413 79.8285 25.5C79.8285 24.9587 79.9219 24.4687 80.1085 24.03C80.2952 23.582 80.5379 23.204 80.8365 22.896C81.1352 22.5787 81.4759 22.336 81.8585 22.168C82.2505 22 82.6519 21.916 83.0625 21.916C83.5385 21.916 83.9492 22.0047 84.2945 22.182C84.6492 22.35 84.9339 22.5833 85.1485 22.882H85.2605V22.14H87.0105V28.51C87.0105 29.0887 86.9219 29.6067 86.7445 30.064C86.5672 30.5307 86.3199 30.9227 86.0025 31.24C85.6852 31.5667 85.3025 31.814 84.8545 31.982C84.4159 32.1593 83.9259 32.248 83.3845 32.248ZM83.4545 27.418C83.6785 27.418 83.8979 27.376 84.1125 27.292C84.3365 27.208 84.5325 27.0867 84.7005 26.928C84.8685 26.76 85.0039 26.5593 85.1065 26.326C85.2092 26.0833 85.2605 25.808 85.2605 25.5C85.2605 25.192 85.2092 24.9167 85.1065 24.674C85.0039 24.4313 84.8685 24.2307 84.7005 24.072C84.5325 23.904 84.3365 23.778 84.1125 23.694C83.8979 23.61 83.6785 23.568 83.4545 23.568C83.2305 23.568 83.0112 23.61 82.7965 23.694C82.5819 23.778 82.3905 23.904 82.2225 24.072C82.0545 24.24 81.9192 24.4453 81.8165 24.688C81.7139 24.9213 81.6625 25.192 81.6625 25.5C81.6625 25.808 81.7139 26.0833 81.8165 26.326C81.9192 26.5593 82.0545 26.76 82.2225 26.928C82.3905 27.0867 82.5819 27.208 82.7965 27.292C83.0112 27.376 83.2305 27.418 83.4545 27.418ZM88.574 29V18.976H90.408V29H88.574ZM98.406 27.348C98.0886 27.908 97.6593 28.3607 97.118 28.706C96.586 29.0513 95.9326 29.224 95.158 29.224C94.6353 29.224 94.15 29.1353 93.702 28.958C93.2633 28.7713 92.8806 28.5147 92.554 28.188C92.2273 27.8613 91.9706 27.4787 91.784 27.04C91.6066 26.592 91.518 26.102 91.518 25.57C91.518 25.0753 91.6066 24.6087 91.784 24.17C91.9613 23.722 92.2086 23.3347 92.526 23.008C92.8433 22.672 93.2166 22.406 93.646 22.21C94.0846 22.014 94.5653 21.916 95.088 21.916C95.6386 21.916 96.1286 22.0093 96.558 22.196C96.9873 22.3733 97.3466 22.6253 97.636 22.952C97.9253 23.2693 98.1446 23.6473 98.294 24.086C98.4433 24.5247 98.518 25.0007 98.518 25.514C98.518 25.5793 98.518 25.6353 98.518 25.682C98.5086 25.738 98.504 25.7893 98.504 25.836C98.4946 25.8827 98.49 25.934 98.49 25.99H93.324C93.3613 26.27 93.436 26.5127 93.548 26.718C93.6693 26.914 93.814 27.082 93.982 27.222C94.1593 27.3527 94.3506 27.4507 94.556 27.516C94.7613 27.572 94.9713 27.6 95.186 27.6C95.606 27.6 95.9513 27.5067 96.222 27.32C96.502 27.124 96.7213 26.8813 96.88 26.592L98.406 27.348ZM96.74 24.688C96.7306 24.5667 96.6886 24.4313 96.614 24.282C96.5486 24.1327 96.446 23.9927 96.306 23.862C96.1753 23.7313 96.0073 23.624 95.802 23.54C95.606 23.456 95.368 23.414 95.088 23.414C94.696 23.414 94.3506 23.526 94.052 23.75C93.7533 23.974 93.5433 24.2867 93.422 24.688H96.74ZM102.989 29V18.976H106.517C106.993 18.976 107.437 19.0553 107.847 19.214C108.267 19.3633 108.631 19.578 108.939 19.858C109.247 20.138 109.49 20.474 109.667 20.866C109.845 21.2487 109.933 21.6733 109.933 22.14C109.933 22.616 109.845 23.05 109.667 23.442C109.49 23.8247 109.247 24.156 108.939 24.436C108.631 24.716 108.267 24.9353 107.847 25.094C107.437 25.2433 106.993 25.318 106.517 25.318H104.879V29H102.989ZM106.545 23.526C107.04 23.526 107.413 23.386 107.665 23.106C107.917 22.826 108.043 22.504 108.043 22.14C108.043 21.9627 108.011 21.79 107.945 21.622C107.889 21.454 107.796 21.3093 107.665 21.188C107.544 21.0573 107.39 20.9547 107.203 20.88C107.017 20.8053 106.797 20.768 106.545 20.768H104.879V23.526H106.545ZM111.119 29V18.976H112.953V29H111.119ZM118.683 28.272H118.571C118.356 28.5333 118.095 28.7573 117.787 28.944C117.488 29.1307 117.101 29.224 116.625 29.224C116.27 29.224 115.934 29.1633 115.617 29.042C115.309 28.93 115.038 28.7713 114.805 28.566C114.572 28.3607 114.39 28.1133 114.259 27.824C114.128 27.5347 114.063 27.2173 114.063 26.872C114.063 26.5173 114.133 26.2 114.273 25.92C114.413 25.6307 114.609 25.3833 114.861 25.178C115.113 24.9727 115.407 24.8187 115.743 24.716C116.088 24.604 116.462 24.548 116.863 24.548C117.311 24.548 117.68 24.5853 117.969 24.66C118.258 24.7253 118.496 24.7953 118.683 24.87V24.66C118.683 24.296 118.538 23.9973 118.249 23.764C117.96 23.5213 117.6 23.4 117.171 23.4C116.536 23.4 116 23.666 115.561 24.198L114.231 23.288C114.959 22.3733 115.953 21.916 117.213 21.916C118.277 21.916 119.089 22.168 119.649 22.672C120.209 23.1667 120.489 23.904 120.489 24.884V29H118.683V28.272ZM118.683 26.214C118.468 26.1113 118.244 26.032 118.011 25.976C117.787 25.9107 117.54 25.878 117.269 25.878C116.83 25.878 116.49 25.976 116.247 26.172C116.014 26.3587 115.897 26.592 115.897 26.872C115.897 27.152 116.009 27.376 116.233 27.544C116.466 27.712 116.732 27.796 117.031 27.796C117.274 27.796 117.498 27.754 117.703 27.67C117.908 27.5767 118.081 27.46 118.221 27.32C118.37 27.1707 118.482 27.0027 118.557 26.816C118.641 26.62 118.683 26.4193 118.683 26.214ZM123.966 28.664L121.082 22.14H123.168L124.904 26.298H125.002L126.668 22.14H128.712L124.414 32.024H122.44L123.966 28.664Z" fill="black"/>
<path d="M26.5927 15.5823C25.093 14.7491 23.25 15.8335 23.25 17.5491V32.4506C23.25 34.1662 25.093 35.2506 26.5927 34.4175L40.004 26.9667C41.5471 26.1095 41.5471 23.8903 40.004 23.033L26.5927 15.5823Z" fill="#71D0FF"/>
<path fill-rule="evenodd" clip-rule="evenodd" d="M37.7692 21.7914L26.5927 15.5823C25.4151 14.9281 24.0258 15.4562 23.4834 16.5439L23.9697 17.0302L23.9811 17.0414L32.8507 25.5414C33.1408 25.8194 33.5984 25.8194 33.8885 25.5414L37.019 22.5414L37.0304 22.5302L37.7692 21.7914Z" fill="#A2D471"/>
<path fill-rule="evenodd" clip-rule="evenodd" d="M37.7692 28.2085L37.0304 27.4697L37.019 27.4585L33.8885 24.4585C33.5984 24.1805 33.1408 24.1805 32.8507 24.4585L23.9811 32.9585L23.9697 32.9697L23.4834 33.456C24.0258 34.5437 25.4151 35.0718 26.5927 34.4176L37.7692 28.2085Z" fill="#F17171"/>
<path fill-rule="evenodd" clip-rule="evenodd" d="M36.4051 21.0337L35.9749 21.4639L32.8502 24.4584C32.7026 24.5998 32.6191 24.7954 32.6191 24.9999C32.6191 25.2043 32.7026 25.3999 32.8502 25.5414L35.9749 28.5359L36.4051 28.9661L40.004 26.9667C41.5471 26.1095 41.5471 23.8903 40.004 23.033L36.4051 21.0337Z" fill="#FFC44D"/>
</svg>
