<svg width="84" height="15" viewBox="0 0 84 15" fill="none" xmlns="http://www.w3.org/2000/svg">
<g clip-path="url(#clip0_207_18)">
<path d="M11.543 0.339966L8.68296 7.91397L5.80596 0.339966H0.886963V14.067H4.42696V4.99197L7.90296 14.067H9.46496L12.922 4.99197V14.067H16.462V0.339966H11.543Z" fill="white"/>
<mask id="mask0_207_18" style="mask-type:luminance" maskUnits="userSpaceOnUse" x="17" y="3" width="10" height="12">
<path d="M17 2.99994H27V14.3129H17V2.99994Z" fill="white"/>
</mask>
<g mask="url(#mask0_207_18)">
<path d="M23.6411 11.516V10.629C23.3131 10.156 22.5711 9.92897 21.8751 9.92897C21.0511 9.92897 20.2891 10.301 20.2891 11.082C20.2891 11.863 21.0511 12.235 21.8751 12.235C22.5711 12.235 23.3131 11.989 23.6411 11.516ZM23.6411 14.066V13.078C23.0241 13.817 21.8321 14.313 20.5551 14.313C19.0321 14.313 17.1411 13.262 17.1411 11.039C17.1411 8.63297 19.0311 7.83197 20.5551 7.83197C21.8751 7.83197 23.0471 8.26197 23.6411 9.00397V8.01597C23.6411 7.15197 22.9031 6.55497 21.6251 6.55497C20.6371 6.55497 19.6491 6.94497 18.8481 7.62497L17.6761 5.42197C18.9531 4.33197 20.6601 3.87897 22.1801 3.87897C24.5671 3.87897 26.8131 4.76597 26.8131 7.85197V14.067L23.6411 14.066Z" fill="white"/>
</g>
<mask id="mask1_207_18" style="mask-type:luminance" maskUnits="userSpaceOnUse" x="27" y="3" width="10" height="12">
<path d="M27 2.99994H37V14.3129H27V2.99994Z" fill="white"/>
</mask>
<g mask="url(#mask1_207_18)">
<path d="M27.2419 12.77L28.5589 10.508C29.3009 11.164 30.8829 11.844 32.0589 11.844C33.0039 11.844 33.3949 11.574 33.3949 11.144C33.3949 9.90997 27.6139 11.184 27.6139 7.15197C27.6139 5.40197 29.1369 3.87897 31.8709 3.87897C33.5589 3.87897 34.9569 4.41397 36.0279 5.19497L34.8169 7.44197C34.2189 6.86297 33.0869 6.34797 31.8949 6.34797C31.1529 6.34797 30.6599 6.63697 30.6599 7.02797C30.6599 8.11797 36.4179 6.98797 36.4179 11.063C36.4179 12.953 34.7539 14.313 31.9139 14.313C30.1249 14.313 28.2939 13.715 27.2419 12.77Z" fill="white"/>
</g>
<mask id="mask2_207_18" style="mask-type:luminance" maskUnits="userSpaceOnUse" x="37" y="0" width="10" height="15">
<path d="M37 0.339966H47V14.313H37V0.339966Z" fill="white"/>
</mask>
<g mask="url(#mask2_207_18)">
<path d="M43.7659 14.067V8.27997C43.7659 7.06997 43.1289 6.67897 42.1169 6.67897C41.1919 6.67897 40.5749 7.19097 40.2069 7.64397V14.066H37.0349V0.339966H40.2069V5.33997C40.8009 4.63997 41.9769 3.87997 43.6409 3.87997C45.9069 3.87997 46.9339 5.15597 46.9339 6.98797V14.067H43.7659Z" fill="white"/>
</g>
<mask id="mask3_207_18" style="mask-type:luminance" maskUnits="userSpaceOnUse" x="47" y="3" width="11" height="12">
<path d="M47 2.99994H58V14.3129H47V2.99994Z" fill="white"/>
</mask>
<g mask="url(#mask3_207_18)">
<path d="M54.075 11.516V10.629C53.746 10.156 53.005 9.92897 52.305 9.92897C51.481 9.92897 50.719 10.301 50.719 11.082C50.719 11.863 51.481 12.235 52.305 12.235C53.005 12.235 53.746 11.989 54.075 11.516ZM54.075 14.066V13.078C53.457 13.817 52.262 14.313 50.989 14.313C49.465 14.313 47.571 13.262 47.571 11.039C47.571 8.63297 49.465 7.83197 50.989 7.83197C52.305 7.83197 53.477 8.26197 54.075 9.00397V8.01597C54.075 7.15197 53.332 6.55497 52.059 6.55497C51.071 6.55497 50.082 6.94497 49.278 7.62497L48.106 5.42197C49.383 4.33197 51.09 3.87897 52.614 3.87897C55 3.87897 57.242 4.76597 57.242 7.85197V14.067L54.075 14.066Z" fill="white"/>
</g>
<mask id="mask4_207_18" style="mask-type:luminance" maskUnits="userSpaceOnUse" x="58" y="0" width="11" height="15">
<path d="M58 0.339966H69V14.313H58V0.339966Z" fill="white"/>
</mask>
<g mask="url(#mask4_207_18)">
<path d="M63.332 11.516C64.586 11.516 65.535 10.586 65.535 9.08597C65.535 7.60597 64.586 6.67597 63.332 6.67597C62.652 6.67597 61.832 7.04697 61.438 7.58197V10.629C61.832 11.164 62.653 11.516 63.332 11.516ZM58.27 14.066V0.339966H61.438V5.29997C61.786 4.85206 62.233 4.49078 62.7439 4.24443C63.2548 3.99808 63.8158 3.87333 64.383 3.87997C66.871 3.87997 68.766 5.83597 68.766 9.08597C68.766 12.461 66.832 14.313 64.383 14.313C63.27 14.313 62.262 13.86 61.438 12.914V14.067H58.27V14.066Z" fill="white"/>
</g>
<mask id="mask5_207_18" style="mask-type:luminance" maskUnits="userSpaceOnUse" x="69" y="0" width="4" height="15">
<path d="M69 0.339966H73V14.313H69V0.339966Z" fill="white"/>
</mask>
<g mask="url(#mask5_207_18)">
<path d="M69.4031 0.339966H72.5711V14.067H69.4031V0.339966Z" fill="white"/>
</g>
<mask id="mask6_207_18" style="mask-type:luminance" maskUnits="userSpaceOnUse" x="73" y="3" width="11" height="12">
<path d="M73 2.99994H83.559V14.3129H73V2.99994Z" fill="white"/>
</mask>
<g mask="url(#mask6_207_18)">
<path d="M78.477 6.42997C77.097 6.42997 76.563 7.25397 76.437 7.97297H80.535C80.45 7.27297 79.938 6.42997 78.477 6.42997ZM73.207 9.08597C73.207 6.20697 75.367 3.87897 78.477 3.87897C81.418 3.87897 83.559 6.03897 83.559 9.41397V10.137H76.481C76.707 11.02 77.531 11.762 78.969 11.762C79.669 11.762 80.821 11.453 81.399 10.918L82.774 12.996C81.789 13.879 80.141 14.313 78.621 14.313C75.555 14.313 73.207 12.317 73.207 9.08597Z" fill="white"/>
</g>
</g>
<defs>
<clipPath id="clip0_207_18">
<rect width="84" height="15" fill="white"/>
</clipPath>
</defs>
</svg>
