<svg width="160" height="50" viewBox="0 0 160 50" fill="none" xmlns="http://www.w3.org/2000/svg">
<rect width="160" height="50" rx="5" fill="white"/>
<path d="M42.5172 29C42.4145 29 42.3305 28.9673 42.2652 28.902C42.1999 28.8367 42.1672 28.7573 42.1672 28.664V19.55C42.1672 19.4473 42.1999 19.3633 42.2652 19.298C42.3305 19.2327 42.4145 19.2 42.5172 19.2H43.6232C43.7539 19.2 43.8519 19.2373 43.9172 19.312C43.9825 19.3773 44.0245 19.4287 44.0432 19.466L46.7452 24.506L49.4752 19.466C49.4939 19.4287 49.5359 19.3773 49.6012 19.312C49.6665 19.2373 49.7645 19.2 49.8952 19.2H50.9872C51.0899 19.2 51.1739 19.2327 51.2392 19.298C51.3045 19.3633 51.3372 19.4473 51.3372 19.55V28.664C51.3372 28.7573 51.3045 28.8367 51.2392 28.902C51.1739 28.9673 51.0899 29 50.9872 29H49.8112C49.7085 29 49.6245 28.9673 49.5592 28.902C49.5032 28.8367 49.4752 28.7573 49.4752 28.664V22.602L47.5152 26.34C47.4685 26.424 47.4079 26.4987 47.3332 26.564C47.2585 26.62 47.1605 26.648 47.0392 26.648H46.4652C46.3345 26.648 46.2319 26.62 46.1572 26.564C46.0919 26.4987 46.0359 26.424 45.9892 26.34L44.0292 22.602V28.664C44.0292 28.7573 43.9965 28.8367 43.9312 28.902C43.8659 28.9673 43.7865 29 43.6932 29H42.5172ZM53.6829 29C53.5895 29 53.5102 28.9673 53.4449 28.902C53.3795 28.8367 53.3469 28.7573 53.3469 28.664V22.056C53.3469 21.9627 53.3795 21.8833 53.4449 21.818C53.5102 21.7527 53.5895 21.72 53.6829 21.72H54.8449C54.9475 21.72 55.0269 21.7527 55.0829 21.818C55.1482 21.8833 55.1809 21.9627 55.1809 22.056V28.664C55.1809 28.7573 55.1482 28.8367 55.0829 28.902C55.0269 28.9673 54.9475 29 54.8449 29H53.6829ZM53.6269 20.516C53.5242 20.516 53.4402 20.488 53.3749 20.432C53.3189 20.3667 53.2909 20.2827 53.2909 20.18V19.172C53.2909 19.0787 53.3189 18.9993 53.3749 18.934C53.4402 18.8687 53.5242 18.836 53.6269 18.836H54.9009C55.0035 18.836 55.0875 18.8687 55.1529 18.934C55.2182 18.9993 55.2509 19.0787 55.2509 19.172V20.18C55.2509 20.2827 55.2182 20.3667 55.1529 20.432C55.0875 20.488 55.0035 20.516 54.9009 20.516H53.6269ZM60.2293 29.14C59.5573 29.14 58.9646 29.014 58.4513 28.762C57.9473 28.51 57.5506 28.146 57.2613 27.67C56.9813 27.1847 56.8273 26.6013 56.7993 25.92C56.7899 25.78 56.7853 25.598 56.7853 25.374C56.7853 25.1407 56.7899 24.9493 56.7993 24.8C56.8273 24.1187 56.9813 23.54 57.2613 23.064C57.5506 22.5787 57.9473 22.21 58.4513 21.958C58.9646 21.706 59.5573 21.58 60.2293 21.58C60.8266 21.58 61.3353 21.664 61.7553 21.832C62.1753 22 62.5206 22.21 62.7913 22.462C63.0619 22.714 63.2626 22.98 63.3933 23.26C63.5333 23.5307 63.6079 23.778 63.6173 24.002C63.6266 24.1047 63.5939 24.1887 63.5193 24.254C63.4539 24.31 63.3746 24.338 63.2813 24.338H62.0493C61.9559 24.338 61.8813 24.3147 61.8253 24.268C61.7786 24.2213 61.7319 24.1513 61.6853 24.058C61.5453 23.6847 61.3586 23.4233 61.1253 23.274C60.9013 23.1153 60.6119 23.036 60.2573 23.036C59.7906 23.036 59.4173 23.1853 59.1373 23.484C58.8666 23.7733 58.7219 24.2353 58.7033 24.87C58.6846 25.2247 58.6846 25.5513 58.7033 25.85C58.7219 26.494 58.8666 26.9607 59.1373 27.25C59.4173 27.5393 59.7906 27.684 60.2573 27.684C60.6213 27.684 60.9153 27.6093 61.1393 27.46C61.3633 27.3013 61.5453 27.0353 61.6853 26.662C61.7319 26.5687 61.7786 26.4987 61.8253 26.452C61.8813 26.4053 61.9559 26.382 62.0493 26.382H63.2813C63.3746 26.382 63.4539 26.4147 63.5193 26.48C63.5939 26.536 63.6266 26.6153 63.6173 26.718C63.6079 26.886 63.5613 27.0773 63.4773 27.292C63.4026 27.4973 63.2766 27.712 63.0993 27.936C62.9313 28.1507 62.7166 28.3513 62.4553 28.538C62.1939 28.7153 61.8766 28.86 61.5033 28.972C61.1393 29.084 60.7146 29.14 60.2293 29.14ZM65.4133 29C65.32 29 65.2407 28.9673 65.1753 28.902C65.11 28.8367 65.0773 28.7573 65.0773 28.664V22.07C65.0773 21.9673 65.11 21.8833 65.1753 21.818C65.2407 21.7527 65.32 21.72 65.4133 21.72H66.5473C66.6407 21.72 66.72 21.7527 66.7853 21.818C66.86 21.8833 66.8973 21.9673 66.8973 22.07V22.644C67.112 22.3453 67.3873 22.1167 67.7233 21.958C68.0687 21.7993 68.4653 21.72 68.9133 21.72H69.4873C69.59 21.72 69.6693 21.7527 69.7253 21.818C69.7907 21.8833 69.8233 21.9627 69.8233 22.056V23.064C69.8233 23.1573 69.7907 23.2367 69.7253 23.302C69.6693 23.3673 69.59 23.4 69.4873 23.4H68.3953C67.9473 23.4 67.5973 23.526 67.3453 23.778C67.1027 24.03 66.9813 24.3753 66.9813 24.814V28.664C66.9813 28.7573 66.9487 28.8367 66.8833 28.902C66.818 28.9673 66.734 29 66.6313 29H65.4133ZM74.0395 29.14C73.2928 29.14 72.6628 29.0093 72.1495 28.748C71.6455 28.4867 71.2582 28.118 70.9875 27.642C70.7262 27.166 70.5768 26.6107 70.5395 25.976C70.5302 25.808 70.5255 25.6027 70.5255 25.36C70.5255 25.1173 70.5302 24.912 70.5395 24.744C70.5768 24.1 70.7308 23.5447 71.0015 23.078C71.2815 22.602 71.6735 22.2333 72.1775 21.972C72.6908 21.7107 73.3115 21.58 74.0395 21.58C74.7675 21.58 75.3835 21.7107 75.8875 21.972C76.4008 22.2333 76.7928 22.602 77.0635 23.078C77.3435 23.5447 77.5022 24.1 77.5395 24.744C77.5488 24.912 77.5535 25.1173 77.5535 25.36C77.5535 25.6027 77.5488 25.808 77.5395 25.976C77.5022 26.6107 77.3482 27.166 77.0775 27.642C76.8162 28.118 76.4288 28.4867 75.9155 28.748C75.4115 29.0093 74.7862 29.14 74.0395 29.14ZM74.0395 27.754C74.5342 27.754 74.9168 27.6 75.1875 27.292C75.4582 26.9747 75.6075 26.5127 75.6355 25.906C75.6448 25.766 75.6495 25.584 75.6495 25.36C75.6495 25.136 75.6448 24.954 75.6355 24.814C75.6075 24.2167 75.4582 23.7593 75.1875 23.442C74.9168 23.1247 74.5342 22.966 74.0395 22.966C73.5448 22.966 73.1622 23.1247 72.8915 23.442C72.6208 23.7593 72.4715 24.2167 72.4435 24.814C72.4342 24.954 72.4295 25.136 72.4295 25.36C72.4295 25.584 72.4342 25.766 72.4435 25.906C72.4715 26.5127 72.6208 26.9747 72.8915 27.292C73.1622 27.6 73.5448 27.754 74.0395 27.754ZM81.8627 29.14C81.3027 29.14 80.822 29.0747 80.4207 28.944C80.0287 28.8133 79.7067 28.65 79.4547 28.454C79.2027 28.258 79.016 28.062 78.8947 27.866C78.7733 27.67 78.708 27.5067 78.6987 27.376C78.6893 27.2733 78.7173 27.194 78.7827 27.138C78.8573 27.0727 78.9367 27.04 79.0207 27.04H80.1267C80.164 27.04 80.1967 27.0447 80.2247 27.054C80.2527 27.0633 80.29 27.0913 80.3367 27.138C80.458 27.2407 80.584 27.348 80.7147 27.46C80.8547 27.572 81.018 27.67 81.2047 27.754C81.3913 27.8287 81.6247 27.866 81.9047 27.866C82.2687 27.866 82.572 27.796 82.8147 27.656C83.0667 27.5067 83.1927 27.2967 83.1927 27.026C83.1927 26.83 83.1367 26.6713 83.0247 26.55C82.922 26.4287 82.726 26.3213 82.4367 26.228C82.1473 26.1253 81.7367 26.018 81.2047 25.906C80.682 25.7847 80.248 25.6307 79.9027 25.444C79.5573 25.2573 79.3007 25.024 79.1327 24.744C78.9647 24.464 78.8807 24.1373 78.8807 23.764C78.8807 23.4 78.988 23.0547 79.2027 22.728C79.4267 22.392 79.7533 22.1167 80.1827 21.902C80.6213 21.6873 81.1627 21.58 81.8067 21.58C82.3107 21.58 82.7493 21.6453 83.1227 21.776C83.496 21.8973 83.804 22.0513 84.0467 22.238C84.2987 22.4247 84.49 22.616 84.6207 22.812C84.7513 22.9987 84.8213 23.162 84.8307 23.302C84.84 23.4047 84.812 23.4887 84.7467 23.554C84.6813 23.61 84.6067 23.638 84.5227 23.638H83.4867C83.44 23.638 83.398 23.6287 83.3607 23.61C83.3233 23.5913 83.286 23.568 83.2487 23.54C83.146 23.4467 83.034 23.3487 82.9127 23.246C82.7913 23.1433 82.642 23.0547 82.4647 22.98C82.2967 22.896 82.0727 22.854 81.7927 22.854C81.438 22.854 81.1673 22.9333 80.9807 23.092C80.794 23.2413 80.7007 23.4327 80.7007 23.666C80.7007 23.8247 80.7427 23.9647 80.8267 24.086C80.92 24.198 81.102 24.3053 81.3727 24.408C81.6433 24.5107 82.054 24.618 82.6047 24.73C83.23 24.842 83.7247 25.01 84.0887 25.234C84.462 25.4487 84.7233 25.7007 84.8727 25.99C85.0313 26.27 85.1107 26.5827 85.1107 26.928C85.1107 27.348 84.9847 27.726 84.7327 28.062C84.49 28.398 84.126 28.664 83.6407 28.86C83.1647 29.0467 82.572 29.14 81.8627 29.14ZM89.7758 29.14C89.0292 29.14 88.3992 29.0093 87.8858 28.748C87.3818 28.4867 86.9945 28.118 86.7238 27.642C86.4625 27.166 86.3132 26.6107 86.2758 25.976C86.2665 25.808 86.2618 25.6027 86.2618 25.36C86.2618 25.1173 86.2665 24.912 86.2758 24.744C86.3132 24.1 86.4672 23.5447 86.7378 23.078C87.0178 22.602 87.4098 22.2333 87.9138 21.972C88.4272 21.7107 89.0478 21.58 89.7758 21.58C90.5038 21.58 91.1198 21.7107 91.6238 21.972C92.1372 22.2333 92.5292 22.602 92.7998 23.078C93.0798 23.5447 93.2385 24.1 93.2758 24.744C93.2852 24.912 93.2898 25.1173 93.2898 25.36C93.2898 25.6027 93.2852 25.808 93.2758 25.976C93.2385 26.6107 93.0845 27.166 92.8138 27.642C92.5525 28.118 92.1652 28.4867 91.6518 28.748C91.1478 29.0093 90.5225 29.14 89.7758 29.14ZM89.7758 27.754C90.2705 27.754 90.6532 27.6 90.9238 27.292C91.1945 26.9747 91.3438 26.5127 91.3718 25.906C91.3812 25.766 91.3858 25.584 91.3858 25.36C91.3858 25.136 91.3812 24.954 91.3718 24.814C91.3438 24.2167 91.1945 23.7593 90.9238 23.442C90.6532 23.1247 90.2705 22.966 89.7758 22.966C89.2812 22.966 88.8985 23.1247 88.6278 23.442C88.3572 23.7593 88.2078 24.2167 88.1798 24.814C88.1705 24.954 88.1658 25.136 88.1658 25.36C88.1658 25.584 88.1705 25.766 88.1798 25.906C88.2078 26.5127 88.3572 26.9747 88.6278 27.292C88.8985 27.6 89.2812 27.754 89.7758 27.754ZM95.879 29C95.7856 29 95.7063 28.9673 95.641 28.902C95.5756 28.8367 95.543 28.7573 95.543 28.664V23.204H94.409C94.3156 23.204 94.2363 23.1713 94.171 23.106C94.1056 23.0407 94.073 22.9613 94.073 22.868V22.056C94.073 21.9627 94.1056 21.8833 94.171 21.818C94.2363 21.7527 94.3156 21.72 94.409 21.72H95.543V21.146C95.543 20.586 95.6456 20.124 95.851 19.76C96.0563 19.3867 96.3596 19.1067 96.761 18.92C97.1623 18.7333 97.671 18.64 98.287 18.64H99.239C99.3416 18.64 99.421 18.6727 99.477 18.738C99.5423 18.8033 99.575 18.8827 99.575 18.976V19.788C99.575 19.8813 99.5423 19.9607 99.477 20.026C99.421 20.0913 99.3416 20.124 99.239 20.124H98.343C97.9696 20.124 97.713 20.2173 97.573 20.404C97.433 20.5907 97.363 20.8613 97.363 21.216V21.72H99.099C99.2016 21.72 99.281 21.7527 99.337 21.818C99.4023 21.8833 99.435 21.9627 99.435 22.056V22.868C99.435 22.9613 99.4023 23.0407 99.337 23.106C99.281 23.1713 99.2016 23.204 99.099 23.204H97.363V28.664C97.363 28.7573 97.3303 28.8367 97.265 28.902C97.1996 28.9673 97.1203 29 97.027 29H95.879ZM103.846 29C103.286 29 102.815 28.902 102.432 28.706C102.049 28.51 101.765 28.2207 101.578 27.838C101.391 27.446 101.298 26.9607 101.298 26.382V23.204H100.192C100.099 23.204 100.019 23.1713 99.9538 23.106C99.8885 23.0407 99.8558 22.9613 99.8558 22.868V22.056C99.8558 21.9627 99.8885 21.8833 99.9538 21.818C100.019 21.7527 100.099 21.72 100.192 21.72H101.298V19.396C101.298 19.3027 101.326 19.2233 101.382 19.158C101.447 19.0927 101.531 19.06 101.634 19.06H102.768C102.861 19.06 102.941 19.0927 103.006 19.158C103.071 19.2233 103.104 19.3027 103.104 19.396V21.72H104.854C104.947 21.72 105.027 21.7527 105.092 21.818C105.157 21.8833 105.19 21.9627 105.19 22.056V22.868C105.19 22.9613 105.157 23.0407 105.092 23.106C105.027 23.1713 104.947 23.204 104.854 23.204H103.104V26.242C103.104 26.6247 103.169 26.9233 103.3 27.138C103.44 27.3527 103.678 27.46 104.014 27.46H104.98C105.073 27.46 105.153 27.4927 105.218 27.558C105.283 27.6233 105.316 27.7027 105.316 27.796V28.664C105.316 28.7573 105.283 28.8367 105.218 28.902C105.153 28.9673 105.073 29 104.98 29H103.846ZM113.327 29.14C112.459 29.14 111.731 29.014 111.143 28.762C110.564 28.5007 110.121 28.1647 109.813 27.754C109.514 27.334 109.356 26.8953 109.337 26.438C109.337 26.354 109.365 26.284 109.421 26.228C109.477 26.172 109.547 26.144 109.631 26.144H110.877C110.998 26.144 111.087 26.172 111.143 26.228C111.208 26.2747 111.264 26.3353 111.311 26.41C111.367 26.5873 111.474 26.7647 111.633 26.942C111.792 27.11 112.006 27.25 112.277 27.362C112.557 27.474 112.907 27.53 113.327 27.53C113.999 27.53 114.498 27.418 114.825 27.194C115.161 26.97 115.329 26.6667 115.329 26.284C115.329 26.0133 115.24 25.7987 115.063 25.64C114.886 25.472 114.61 25.3227 114.237 25.192C113.873 25.052 113.388 24.9073 112.781 24.758C112.081 24.59 111.493 24.3893 111.017 24.156C110.55 23.9133 110.196 23.61 109.953 23.246C109.72 22.882 109.603 22.42 109.603 21.86C109.603 21.3187 109.748 20.838 110.037 20.418C110.336 19.998 110.756 19.6667 111.297 19.424C111.848 19.1813 112.501 19.06 113.257 19.06C113.864 19.06 114.4 19.144 114.867 19.312C115.334 19.4707 115.721 19.6853 116.029 19.956C116.337 20.2173 116.57 20.502 116.729 20.81C116.897 21.1087 116.986 21.4027 116.995 21.692C116.995 21.7667 116.967 21.8367 116.911 21.902C116.864 21.958 116.794 21.986 116.701 21.986H115.399C115.324 21.986 115.25 21.9673 115.175 21.93C115.1 21.8927 115.04 21.8227 114.993 21.72C114.937 21.4307 114.755 21.1833 114.447 20.978C114.139 20.7727 113.742 20.67 113.257 20.67C112.753 20.67 112.347 20.7633 112.039 20.95C111.731 21.1367 111.577 21.426 111.577 21.818C111.577 22.0793 111.652 22.2987 111.801 22.476C111.96 22.644 112.207 22.7933 112.543 22.924C112.888 23.0547 113.341 23.1947 113.901 23.344C114.694 23.5213 115.343 23.7267 115.847 23.96C116.351 24.1933 116.72 24.492 116.953 24.856C117.186 25.2107 117.303 25.6633 117.303 26.214C117.303 26.83 117.135 27.3573 116.799 27.796C116.472 28.2253 116.01 28.5567 115.413 28.79C114.816 29.0233 114.12 29.14 113.327 29.14ZM122.029 29C121.469 29 120.998 28.902 120.615 28.706C120.233 28.51 119.948 28.2207 119.761 27.838C119.575 27.446 119.481 26.9607 119.481 26.382V23.204H118.375C118.282 23.204 118.203 23.1713 118.137 23.106C118.072 23.0407 118.039 22.9613 118.039 22.868V22.056C118.039 21.9627 118.072 21.8833 118.137 21.818C118.203 21.7527 118.282 21.72 118.375 21.72H119.481V19.396C119.481 19.3027 119.509 19.2233 119.565 19.158C119.631 19.0927 119.715 19.06 119.817 19.06H120.951C121.045 19.06 121.124 19.0927 121.189 19.158C121.255 19.2233 121.287 19.3027 121.287 19.396V21.72H123.037C123.131 21.72 123.21 21.7527 123.275 21.818C123.341 21.8833 123.373 21.9627 123.373 22.056V22.868C123.373 22.9613 123.341 23.0407 123.275 23.106C123.21 23.1713 123.131 23.204 123.037 23.204H121.287V26.242C121.287 26.6247 121.353 26.9233 121.483 27.138C121.623 27.3527 121.861 27.46 122.197 27.46H123.163C123.257 27.46 123.336 27.4927 123.401 27.558C123.467 27.6233 123.499 27.7027 123.499 27.796V28.664C123.499 28.7573 123.467 28.8367 123.401 28.902C123.336 28.9673 123.257 29 123.163 29H122.029ZM127.961 29.14C127.215 29.14 126.585 29.0093 126.071 28.748C125.567 28.4867 125.18 28.118 124.909 27.642C124.648 27.166 124.499 26.6107 124.461 25.976C124.452 25.808 124.447 25.6027 124.447 25.36C124.447 25.1173 124.452 24.912 124.461 24.744C124.499 24.1 124.653 23.5447 124.923 23.078C125.203 22.602 125.595 22.2333 126.099 21.972C126.613 21.7107 127.233 21.58 127.961 21.58C128.689 21.58 129.305 21.7107 129.809 21.972C130.323 22.2333 130.715 22.602 130.985 23.078C131.265 23.5447 131.424 24.1 131.461 24.744C131.471 24.912 131.475 25.1173 131.475 25.36C131.475 25.6027 131.471 25.808 131.461 25.976C131.424 26.6107 131.27 27.166 130.999 27.642C130.738 28.118 130.351 28.4867 129.837 28.748C129.333 29.0093 128.708 29.14 127.961 29.14ZM127.961 27.754C128.456 27.754 128.839 27.6 129.109 27.292C129.38 26.9747 129.529 26.5127 129.557 25.906C129.567 25.766 129.571 25.584 129.571 25.36C129.571 25.136 129.567 24.954 129.557 24.814C129.529 24.2167 129.38 23.7593 129.109 23.442C128.839 23.1247 128.456 22.966 127.961 22.966C127.467 22.966 127.084 23.1247 126.813 23.442C126.543 23.7593 126.393 24.2167 126.365 24.814C126.356 24.954 126.351 25.136 126.351 25.36C126.351 25.584 126.356 25.766 126.365 25.906C126.393 26.5127 126.543 26.9747 126.813 27.292C127.084 27.6 127.467 27.754 127.961 27.754ZM133.363 29C133.269 29 133.19 28.9673 133.125 28.902C133.059 28.8367 133.027 28.7573 133.027 28.664V22.07C133.027 21.9673 133.059 21.8833 133.125 21.818C133.19 21.7527 133.269 21.72 133.363 21.72H134.497C134.59 21.72 134.669 21.7527 134.735 21.818C134.809 21.8833 134.847 21.9673 134.847 22.07V22.644C135.061 22.3453 135.337 22.1167 135.673 21.958C136.018 21.7993 136.415 21.72 136.863 21.72H137.437C137.539 21.72 137.619 21.7527 137.675 21.818C137.74 21.8833 137.773 21.9627 137.773 22.056V23.064C137.773 23.1573 137.74 23.2367 137.675 23.302C137.619 23.3673 137.539 23.4 137.437 23.4H136.345C135.897 23.4 135.547 23.526 135.295 23.778C135.052 24.03 134.931 24.3753 134.931 24.814V28.664C134.931 28.7573 134.898 28.8367 134.833 28.902C134.767 28.9673 134.683 29 134.581 29H133.363ZM141.905 29.14C140.869 29.14 140.047 28.8413 139.441 28.244C138.834 27.6467 138.507 26.7973 138.461 25.696C138.451 25.6027 138.447 25.486 138.447 25.346C138.447 25.1967 138.451 25.08 138.461 24.996C138.498 24.296 138.657 23.6893 138.937 23.176C139.226 22.6627 139.623 22.2707 140.127 22C140.631 21.72 141.223 21.58 141.905 21.58C142.661 21.58 143.295 21.7387 143.809 22.056C144.322 22.364 144.709 22.798 144.971 23.358C145.232 23.9087 145.363 24.548 145.363 25.276V25.57C145.363 25.6633 145.33 25.7427 145.265 25.808C145.199 25.8733 145.115 25.906 145.013 25.906H140.365C140.365 25.906 140.365 25.92 140.365 25.948C140.365 25.976 140.365 25.9993 140.365 26.018C140.374 26.3447 140.435 26.648 140.547 26.928C140.668 27.1987 140.841 27.418 141.065 27.586C141.298 27.754 141.573 27.838 141.891 27.838C142.152 27.838 142.371 27.8007 142.549 27.726C142.726 27.642 142.871 27.5487 142.983 27.446C143.095 27.3433 143.174 27.2593 143.221 27.194C143.305 27.082 143.37 27.0167 143.417 26.998C143.473 26.97 143.552 26.956 143.655 26.956H144.859C144.952 26.956 145.027 26.984 145.083 27.04C145.148 27.096 145.176 27.166 145.167 27.25C145.157 27.3993 145.078 27.5813 144.929 27.796C144.789 28.0107 144.583 28.2207 144.313 28.426C144.042 28.6313 143.701 28.804 143.291 28.944C142.889 29.0747 142.427 29.14 141.905 29.14ZM140.365 24.73H143.459V24.688C143.459 24.324 143.398 24.0067 143.277 23.736C143.155 23.4653 142.978 23.2507 142.745 23.092C142.511 22.9333 142.231 22.854 141.905 22.854C141.578 22.854 141.298 22.9333 141.065 23.092C140.831 23.2507 140.654 23.4653 140.533 23.736C140.421 24.0067 140.365 24.324 140.365 24.688V24.73Z" fill="black"/>
<path d="M35 15L24.2 16.6V24.6L35 24.5V15ZM23.2 25.5L15 25.4V32.2L23.1 33.3L23.2 25.5ZM15 17.8V24.6H23.1V16.7L15 17.8ZM24.1 25.5V33.4L35 35V25.6L24.1 25.5Z" fill="black"/>
</svg>
