<svg width="142" height="50" viewBox="0 0 142 50" fill="none" xmlns="http://www.w3.org/2000/svg">
<g clip-path="url(#clip0_200_91)">
<path d="M135.272 0.78125H7.14746C4.12715 0.78125 1.67871 3.22969 1.67871 6.25V43.75C1.67871 46.7703 4.12715 49.2188 7.14746 49.2188H135.272C138.293 49.2188 140.741 46.7703 140.741 43.75V6.25C140.741 3.22969 138.293 0.78125 135.272 0.78125Z" fill="black"/>
<path d="M25.2036 10.9375H11.835V24.3137H25.2036V10.9375Z" fill="#F25022"/>
<path d="M39.9601 10.9375H26.5916V24.3137H39.9601V10.9375Z" fill="#7FBA00"/>
<path d="M25.2036 25.6868H11.835V39.0629H25.2036V25.6868Z" fill="#00A4EF"/>
<path d="M39.9603 25.6868H26.5917V39.0629H39.9603V25.6868Z" fill="#FFB900"/>
<path d="M54.0103 19.7083C53.5708 19.9564 53.105 20.1436 52.6127 20.2698C52.1203 20.3959 51.6014 20.4591 51.0563 20.4591C49.7622 20.4591 48.7349 20.0745 47.9739 19.3055C47.213 18.5364 46.8325 17.452 46.8325 16.0522C46.8325 14.6403 47.2538 13.5152 48.096 12.677C48.9424 11.8347 50.0328 11.4136 51.3675 11.4136C51.8639 11.4136 52.3197 11.4644 52.7347 11.5662C53.1538 11.6638 53.5769 11.8205 54.0042 12.0361L53.5586 12.9333C53.2006 12.7462 52.8486 12.6119 52.5027 12.5305C52.1569 12.4491 51.7764 12.4085 51.3614 12.4085C50.3808 12.4085 49.575 12.7197 48.9444 13.3423C48.3178 13.9648 48.0044 14.8437 48.0044 15.9791C48.0044 17.1305 48.2811 18.0012 48.8346 18.5912C49.3921 19.1772 50.1733 19.4702 51.1783 19.4702C51.5078 19.4702 51.815 19.4377 52.0999 19.3725C52.3888 19.3075 52.6533 19.2098 52.8933 19.0795V16.6992H50.9891V15.7105H54.0103V19.7083ZM61.188 17.3584H56.6836C56.7039 18.0664 56.8931 18.6117 57.2513 18.9941C57.6094 19.3725 58.1119 19.5617 58.7588 19.5617C59.0396 19.5617 59.3264 19.5191 59.6194 19.4336C59.9164 19.3441 60.2135 19.1997 60.5105 19.0003L61.005 19.757C60.6347 20.0012 60.2624 20.1803 59.888 20.2942C59.5136 20.4081 59.1027 20.4652 58.655 20.4652C57.6867 20.4652 56.9319 20.1783 56.3906 19.6045C55.8495 19.0267 55.5769 18.2211 55.5728 17.1875C55.5688 16.158 55.8414 15.33 56.3906 14.7034C56.9441 14.0727 57.6602 13.7573 58.5391 13.7573C59.3774 13.7573 60.0285 14.03 60.4922 14.5752C60.9561 15.1164 61.188 15.8712 61.188 16.8395V17.3584ZM60.0955 16.5039C60.0914 15.9139 59.9491 15.4561 59.6683 15.1306C59.3916 14.8051 59.0091 14.6423 58.5208 14.6423C58.0406 14.6423 57.6338 14.8112 57.3002 15.1489C56.9705 15.4826 56.7691 15.9342 56.6958 16.5039H60.0955ZM65.9305 20.2331C65.7555 20.3064 65.5805 20.3592 65.4056 20.3919C65.2347 20.4284 65.0414 20.4467 64.8258 20.4467C64.3008 20.4467 63.8899 20.2962 63.5928 19.9952C63.2999 19.6941 63.1535 19.2484 63.1535 18.6584V14.8132H62.0608V13.9099H63.1535V12.4451L64.246 12.0972V13.9099H65.845V14.8132H64.246V18.5425C64.246 18.9047 64.311 19.165 64.4413 19.3237C64.5714 19.4825 64.7667 19.5617 65.0272 19.5617C65.1492 19.5617 65.2672 19.5475 65.3811 19.5191C65.495 19.4906 65.5927 19.4559 65.6741 19.4153L65.9305 20.2331ZM71.2833 12.5549C71.0677 12.5549 70.8886 12.4837 70.7461 12.3413C70.6038 12.1989 70.5325 12.026 70.5325 11.8225C70.5325 11.6109 70.6038 11.436 70.7461 11.2976C70.8886 11.1552 71.0677 11.084 71.2833 11.084C71.4989 11.084 71.678 11.1552 71.8203 11.2976C71.9669 11.436 72.04 11.6109 72.04 11.8225C72.04 12.026 71.9669 12.1989 71.8203 12.3413C71.678 12.4837 71.4989 12.5549 71.2833 12.5549ZM71.8142 20.3125H70.7278V13.9099H71.8142V20.3125ZM77.1366 20.2331C76.9616 20.3064 76.7866 20.3592 76.6116 20.3919C76.4408 20.4284 76.2475 20.4467 76.0317 20.4467C75.5069 20.4467 75.096 20.2962 74.7989 19.9952C74.506 19.6941 74.3594 19.2484 74.3594 18.6584V14.8132H73.2669V13.9099H74.3594V12.4451L75.4519 12.0972V13.9099H77.0511V14.8132H75.4519V18.5425C75.4519 18.9047 75.5171 19.165 75.6472 19.3237C75.7775 19.4825 75.9728 19.5617 76.2331 19.5617C76.3553 19.5617 76.4733 19.5475 76.5872 19.5191C76.7011 19.4906 76.7988 19.4559 76.8802 19.4153L77.1366 20.2331ZM85.0161 11.9263C84.9022 11.8856 84.7985 11.8571 84.7049 11.8408C84.6113 11.8245 84.5136 11.8164 84.4119 11.8164C84.0742 11.8164 83.8219 11.9059 83.655 12.085C83.4924 12.264 83.411 12.5265 83.411 12.8723V13.9099H84.8819V14.8132H83.411V20.3125H82.3306V14.8132H81.2564V13.9099H82.3306V12.8174C82.3306 12.2192 82.5158 11.7513 82.8861 11.4136C83.2603 11.0758 83.7691 10.907 84.4119 10.907C84.5747 10.907 84.7231 10.9192 84.8575 10.9436C84.9917 10.968 85.1302 11.0026 85.2725 11.0474L85.0161 11.9263ZM89.313 14.8376C89.2317 14.8132 89.1564 14.7949 89.0872 14.7827C89.018 14.7705 88.9347 14.7644 88.8369 14.7644C88.3202 14.7644 87.9133 14.9841 87.6163 15.4236C87.3192 15.8589 87.1706 16.4103 87.1706 17.0777V20.3125H86.0842V13.9099H87.1706V15.1794H87.1952C87.3416 14.7278 87.5633 14.386 87.8603 14.154C88.1616 13.918 88.5094 13.8 88.9041 13.8C89.0302 13.8 89.1381 13.8062 89.2275 13.8184C89.3211 13.8306 89.4066 13.8489 89.4839 13.8733L89.313 14.8376ZM93.4024 20.4652C92.4461 20.4652 91.6833 20.1659 91.1136 19.5678C90.548 18.9656 90.2652 18.1681 90.2652 17.1753C90.2652 16.1052 90.5581 15.269 91.1441 14.6667C91.73 14.0645 92.5296 13.7614 93.5428 13.7573C94.5031 13.7532 95.2538 14.0483 95.795 14.6423C96.3402 15.2323 96.6128 16.0441 96.6128 17.0777C96.6128 18.107 96.3219 18.9291 95.74 19.5434C95.1581 20.1578 94.3789 20.4652 93.4024 20.4652ZM93.4756 19.5617C94.1267 19.5617 94.6252 19.3502 94.971 18.927C95.321 18.4997 95.496 17.8955 95.496 17.1142C95.496 16.3248 95.321 15.7186 94.971 15.2954C94.6211 14.8722 94.1227 14.6606 93.4756 14.6606C92.8286 14.6606 92.316 14.8824 91.9375 15.3259C91.5631 15.7653 91.376 16.3717 91.376 17.1448C91.376 17.8975 91.5652 18.4895 91.9436 18.9209C92.3221 19.3481 92.8327 19.5617 93.4756 19.5617ZM107.471 20.3125H106.378V16.632C106.378 15.9362 106.271 15.4337 106.055 15.1245C105.839 14.8153 105.479 14.6606 104.975 14.6606C104.543 14.6606 104.177 14.856 103.876 15.2466C103.579 15.6372 103.43 16.1092 103.43 16.6627V20.3125H102.344V16.5161C102.344 15.8977 102.224 15.4337 101.984 15.1245C101.748 14.8153 101.392 14.6606 100.916 14.6606C100.472 14.6606 100.106 14.8458 99.8172 15.2161C99.5324 15.5863 99.39 16.0706 99.39 16.6687V20.3125H98.3035V13.9099H99.39V14.9231H99.4144C99.6422 14.5365 99.923 14.2456 100.257 14.0503C100.59 13.855 100.975 13.7573 101.41 13.7573C101.85 13.7573 102.23 13.8774 102.552 14.1174C102.877 14.3575 103.103 14.6769 103.229 15.0757C103.465 14.6362 103.76 14.3066 104.114 14.0869C104.472 13.8672 104.885 13.7573 105.353 13.7573C106.057 13.7573 106.586 13.975 106.94 14.4104C107.294 14.8417 107.471 15.4927 107.471 16.3636V20.3125Z" fill="white"/>
<path d="M65.1926 25.9567C65.1926 25.5561 65.3368 25.2356 65.6254 24.9631C65.9139 24.6908 66.2503 24.5625 66.6511 24.5625C67.0676 24.5625 67.4203 24.7067 67.6926 24.9792C67.9651 25.2516 68.1093 25.5881 68.1093 25.9567C68.1093 26.3414 67.9651 26.6778 67.6767 26.9344C67.3883 27.2067 67.0517 27.335 66.635 27.335C66.2183 27.335 65.8818 27.2067 65.5933 26.9344C65.3368 26.6619 65.1926 26.3414 65.1926 25.9567ZM67.8368 39.0658H65.449V28.8894H67.8368V39.0658Z" fill="white"/>
<path d="M75.1123 37.3261C75.4648 37.3261 75.8654 37.2459 76.2982 37.0858C76.7309 36.9255 77.1154 36.7011 77.484 36.4287V38.6562C77.0994 38.8806 76.6668 39.0409 76.186 39.153C75.7052 39.2652 75.1602 39.3294 74.5834 39.3294C73.093 39.3294 71.8751 38.8486 70.9294 37.903C69.984 36.9575 69.5193 35.7395 69.5193 34.2813C69.5193 32.6466 70.0001 31.3005 70.9616 30.2428C71.923 29.1852 73.2693 28.6562 75.0321 28.6562C75.4809 28.6562 75.9296 28.7203 76.3943 28.8325C76.859 28.9447 77.2116 29.0889 77.484 29.2331V31.5248C77.1154 31.2523 76.7309 31.0441 76.3462 30.8998C75.9616 30.7556 75.561 30.6755 75.1602 30.6755C74.2148 30.6755 73.4616 30.98 72.8687 31.5889C72.2916 32.198 72.0032 33.0312 72.0032 34.073C72.0032 35.0986 72.2757 35.8998 72.8366 36.4767C73.3974 37.0538 74.1507 37.3261 75.1123 37.3261Z" fill="white"/>
<path d="M84.294 28.7344C84.4864 28.7344 84.6626 28.7505 84.8068 28.7664C84.951 28.7984 85.0953 28.8306 85.1915 28.8627V31.2825C85.0632 31.1863 84.887 31.1063 84.6467 31.0261C84.4062 30.9459 84.1178 30.8978 83.7653 30.8978C83.1723 30.8978 82.6754 31.1383 82.2748 31.635C81.8742 32.1319 81.6659 32.885 81.6659 33.9267V39.0709H79.2781V28.8947H81.6659V30.4972H81.6979C81.9223 29.9363 82.2428 29.5036 82.6915 29.1991C83.1403 28.8947 83.669 28.7344 84.294 28.7344Z" fill="white"/>
<path d="M85.3206 34.137C85.3206 32.4544 85.8013 31.1242 86.7468 30.1306C87.6923 29.153 89.0224 28.6562 90.7051 28.6562C92.2916 28.6562 93.5416 29.137 94.4391 30.0825C95.3365 31.028 95.7852 32.3102 95.7852 33.9127C95.7852 35.5633 95.3045 36.8773 94.359 37.855C93.4134 38.8325 92.1154 39.3133 90.4807 39.3133C88.9102 39.3133 87.6442 38.8486 86.7307 37.9191C85.7852 37.0056 85.3206 35.7395 85.3206 34.137ZM87.8206 34.0569C87.8206 35.1145 88.0609 35.9319 88.5417 36.4928C89.0224 37.0537 89.7115 37.3261 90.609 37.3261C91.4743 37.3261 92.1474 37.0537 92.5962 36.4928C93.0448 35.9319 93.2852 35.0986 93.2852 33.9928C93.2852 32.903 93.0448 32.0697 92.5801 31.5087C92.1154 30.948 91.4423 30.6755 90.5929 30.6755C89.7115 30.6755 89.0384 30.9639 88.5417 31.5569C88.0609 32.1498 87.8206 32.9672 87.8206 34.0569Z" fill="white"/>
<path d="M99.3432 31.5733C99.3432 31.9098 99.4554 32.1823 99.6637 32.3747C99.8881 32.5669 100.369 32.8073 101.106 33.1119C102.068 33.4964 102.741 33.9291 103.125 34.4098C103.51 34.8906 103.702 35.4677 103.702 36.1406C103.702 37.1022 103.334 37.8714 102.596 38.4484C101.859 39.0253 100.866 39.3138 99.6156 39.3138C99.199 39.3138 98.7342 39.2656 98.2213 39.1534C97.7085 39.0573 97.2759 38.9131 96.9232 38.7689V36.4131C97.356 36.7177 97.8207 36.958 98.3335 37.1342C98.8304 37.3105 99.2951 37.4067 99.6957 37.4067C100.241 37.4067 100.641 37.3266 100.898 37.1823C101.154 37.0381 101.282 36.7817 101.282 36.4131C101.282 36.0766 101.154 35.8041 100.882 35.5798C100.609 35.3555 100.112 35.083 99.3592 34.7945C98.4777 34.4259 97.8527 34.0092 97.4842 33.5445C97.1156 33.0797 96.9232 32.4869 96.9232 31.7817C96.9232 30.8683 97.2918 30.115 98.0131 29.522C98.7342 28.9291 99.6796 28.6406 100.85 28.6406C101.202 28.6406 101.603 28.6727 102.052 28.7528C102.5 28.833 102.869 28.9291 103.157 29.0573V31.333C102.837 31.1247 102.468 30.9483 102.052 30.7881C101.635 30.6439 101.202 30.5638 100.801 30.5638C100.353 30.5638 99.9842 30.6598 99.7438 30.8361C99.4713 31.0125 99.3432 31.2689 99.3432 31.5733Z" fill="white"/>
<path d="M104.76 34.137C104.76 32.4544 105.24 31.1242 106.186 30.1306C107.131 29.153 108.461 28.6562 110.144 28.6562C111.731 28.6562 112.981 29.137 113.878 30.0825C114.775 31.028 115.224 32.3102 115.224 33.9127C115.224 35.5633 114.743 36.8773 113.798 37.855C112.852 38.8325 111.554 39.3133 109.92 39.3133C108.349 39.3133 107.083 38.8486 106.17 37.9191C105.224 37.0056 104.76 35.7395 104.76 34.137ZM107.243 34.0569C107.243 35.1145 107.484 35.9319 107.965 36.4928C108.445 37.0537 109.135 37.3261 110.032 37.3261C110.897 37.3261 111.57 37.0537 112.019 36.4928C112.468 35.9319 112.708 35.0986 112.708 33.9928C112.708 32.903 112.468 32.0697 112.003 31.5087C111.538 30.948 110.865 30.6755 110.016 30.6755C109.135 30.6755 108.461 30.9639 107.965 31.5569C107.484 32.1498 107.243 32.9672 107.243 34.0569Z" fill="white"/>
<path d="M123.125 30.863V36.0873C123.125 37.177 123.382 37.9784 123.879 38.5233C124.375 39.0681 125.144 39.3245 126.154 39.3245C126.491 39.3245 126.843 39.2925 127.196 39.2123C127.548 39.1322 127.805 39.0681 127.949 38.972V36.9848C127.805 37.0809 127.629 37.1611 127.436 37.2252C127.244 37.2892 127.068 37.3214 126.939 37.3214C126.459 37.3214 126.09 37.1931 125.866 36.9367C125.641 36.6803 125.529 36.2316 125.529 35.6066V30.847H127.965V28.8919H125.545V25.8791L123.141 26.6163V28.9078H119.568V27.6739C119.568 27.0648 119.696 26.6002 119.968 26.2797C120.241 25.9592 120.625 25.8148 121.122 25.8148C121.379 25.8148 121.603 25.847 121.811 25.9111C122.004 25.9752 122.148 26.0392 122.228 26.0873V24.02C122.051 23.9559 121.859 23.9239 121.635 23.8919C121.411 23.8598 121.154 23.8438 120.866 23.8438C119.776 23.8438 118.879 24.1803 118.189 24.8694C117.5 25.5584 117.148 26.4239 117.148 27.4977V28.9078H115.449V30.863H117.148V39.0842H119.568V30.863H123.125Z" fill="white"/>
<path d="M63.1411 24.875V39.0738H60.6731V27.9519H60.6411L56.234 39.0738H54.5993L50.0801 27.9519H50.0481V39.0738H47.7725V24.875H51.2981L55.3846 35.4039H55.4487L59.7596 24.875H63.1411Z" fill="white"/>
<path d="M135.272 0.78125H7.14746C4.12715 0.78125 1.67871 3.22969 1.67871 6.25V43.75C1.67871 46.7703 4.12715 49.2188 7.14746 49.2188H135.272C138.293 49.2188 140.741 46.7703 140.741 43.75V6.25C140.741 3.22969 138.293 0.78125 135.272 0.78125Z" stroke="#A6A6A6"/>
</g>
<defs>
<clipPath id="clip0_200_91">
<rect width="140.625" height="50" fill="white" transform="translate(0.897461)"/>
</clipPath>
</defs>
</svg>
