<svg width="267" height="36" viewBox="0 0 267 36" fill="none" xmlns="http://www.w3.org/2000/svg">
<g clip-path="url(#clip0_50_204)">
<path d="M20.4169 4.17593C20.4169 1.29593 17.6809 0.575928 15.5209 0.575928V1.00793C16.8169 1.00793 17.8249 1.43993 17.8249 2.44793C17.8249 3.02393 17.3929 3.88793 16.0969 3.88793C15.0889 3.88793 12.9289 3.31193 11.3449 2.73593C9.47292 2.01593 7.74492 1.43993 6.30492 1.43993C3.42492 1.43993 1.40892 3.59993 1.40892 6.04793C1.40892 8.20793 2.99292 8.92793 3.56892 9.21593L3.71292 8.92793C3.42492 8.63993 2.99292 8.35193 2.99292 7.48793C2.99292 6.91193 3.56892 5.90393 5.00892 5.90393C6.30492 5.90393 8.03292 6.47993 10.3369 7.19993C12.3529 7.77593 14.5129 8.20793 15.6649 8.35193V12.8159L13.5049 14.6879V14.8319L15.6649 16.7039V22.8959C14.5129 23.6159 13.2169 23.7599 12.0649 23.7599C9.90492 23.7599 8.03292 23.1839 6.44892 21.4559L12.3529 18.5759V8.63993L5.15292 11.8079C5.72892 9.93593 7.31292 8.63993 8.89692 7.77593L8.75292 7.34393C4.43292 8.49593 0.544922 12.5279 0.544922 17.4239C0.544922 23.1839 5.29692 27.5039 10.6249 27.5039C16.3849 27.5039 20.1289 22.8959 20.1289 18.1439H19.8409C18.9769 20.0159 17.6809 21.7439 16.0969 22.6079V16.7039L18.4009 14.8319V14.6879L16.0969 12.8159V8.35193C18.2569 8.35193 20.4169 6.91193 20.4169 4.17593ZM7.88892 20.0159L6.16092 20.8799C5.15292 19.5839 4.57692 17.8559 4.57692 15.4079C4.57692 14.3999 4.57692 13.2479 4.86492 12.3839L7.88892 11.0879V20.0159ZM23.1529 23.3279L21.2809 24.7679L21.5689 25.0559L22.4329 24.3359L25.6009 27.2159L29.9209 24.3359L29.7769 24.0479L28.6249 24.7679L27.1849 23.3279V13.5359L28.3369 12.6719L30.7849 14.6879V23.4719C30.7849 28.9439 29.6329 29.8079 27.1849 30.6719V31.1039C31.2169 31.2479 34.9609 29.9519 34.9609 22.8959V13.3919L36.2569 12.3839L35.9689 12.0959L34.8169 12.9599L31.2169 9.93593L27.1849 12.9599V1.15193H26.8969L21.8569 4.60793V4.89593C22.4329 5.18393 23.2969 5.47193 23.2969 7.05593L23.1529 23.3279ZM49.5049 21.7439L45.9049 24.4799L42.3049 21.5999V19.8719L49.0729 15.2639V15.1199L45.6169 9.93593L38.1289 13.9679V23.4719L36.6889 24.6239L36.9769 24.9119L38.2729 23.9039L43.1689 27.5039L49.6489 22.3199L49.5049 21.7439ZM42.3049 19.2959V12.2399L42.5929 12.0959L45.7609 17.1359L42.3049 19.2959ZM77.0089 2.87993C77.0089 2.44793 76.8649 2.01593 76.7209 1.58393H76.4329C76.0009 2.73593 75.4249 3.31193 73.9849 3.31193C72.6889 3.31193 71.8249 2.59193 71.2489 2.01593L67.0729 6.76793L67.3609 7.05593L68.8009 5.75993C69.6649 6.47993 70.3849 7.05593 72.4009 7.19993V19.1519L63.9049 4.60793C63.1849 3.45593 62.1769 1.87193 60.1609 1.87193C57.8569 1.87193 55.8409 3.88793 56.1289 7.05593H56.5609C56.7049 6.19193 57.1369 5.18393 58.1449 5.18393C58.8649 5.18393 59.5849 5.90393 60.0169 6.62393V11.3759C57.4249 11.3759 55.6969 12.5279 55.6969 14.6879C55.6969 15.8399 56.2729 17.5679 58.0009 17.9999V17.7119C57.7129 17.4239 57.5689 17.1359 57.5689 16.7039C57.5689 15.9839 58.1449 15.4079 59.1529 15.4079H59.8729V21.4559C56.8489 21.4559 54.4009 23.1839 54.4009 26.0639C54.4009 28.7999 56.7049 30.0959 59.2969 29.9519V29.6639C57.7129 29.5199 56.9929 28.7999 56.9929 27.7919C56.9929 26.4959 57.8569 25.9199 59.0089 25.9199C60.1609 25.9199 61.1689 26.6399 61.8889 27.5039L66.0649 22.8959L65.7769 22.6079L64.7689 23.7599C63.1849 22.3199 62.3209 21.8879 60.4489 21.5999V7.19993L71.9689 27.3599H72.8329V7.19993C74.9929 7.05593 77.0089 5.32793 77.0089 2.87993ZM87.5209 21.7439L83.9209 24.4799L80.3209 21.5999V19.8719L87.0889 15.2639V15.1199L83.6329 9.93593L76.1449 13.9679V23.4719L74.7049 24.6239L74.9929 24.9119L76.2889 23.9039L81.1849 27.5039L87.6649 22.3199L87.5209 21.7439ZM80.3209 19.2959V12.2399L80.6089 12.0959L83.7769 17.1359L80.3209 19.2959ZM110.993 11.5199L109.985 12.2399L107.249 9.93593L104.081 12.8159L105.377 14.1119V24.9119L101.921 22.7519V13.8239L103.073 13.1039L99.7609 9.93593L96.5929 12.8159L97.8889 14.1119V24.4799L97.4569 24.7679L94.4329 22.6079V13.9679C94.4329 11.9519 93.4249 11.3759 92.2729 10.6559C91.2649 9.93593 90.6889 9.50393 90.6889 8.49593C90.6889 7.63193 91.5529 7.19993 91.9849 6.91193V6.62393C90.8329 6.62393 87.8089 7.77593 87.8089 10.5119C87.8089 11.9519 88.5289 12.5279 89.2489 13.2479C89.9689 13.9679 90.6889 14.5439 90.6889 15.8399V24.1919L89.1049 25.3439L89.3929 25.6319L90.8329 24.4799L94.1449 27.3599L97.7449 24.9119L101.777 27.3599L109.409 22.8959V13.2479L111.281 11.8079L110.993 11.5199ZM137.777 3.59993L136.337 4.89593L133.169 2.01593L128.417 5.47193V2.30393H127.985L128.129 25.6319C127.697 25.6319 126.401 25.3439 125.393 25.0559L125.105 5.61593C125.105 4.17593 124.097 2.15993 121.505 2.15993C118.913 2.15993 117.185 4.17593 117.185 6.19193H117.617C117.761 5.32793 118.193 4.60793 119.057 4.60793C119.921 4.60793 120.641 5.18393 120.641 7.05593V12.6719C118.049 12.8159 116.465 14.2559 116.465 16.1279C116.465 17.2799 117.041 19.0079 118.769 19.0079V18.7199C118.193 18.4319 118.049 17.9999 118.049 17.7119C118.049 16.8479 118.769 16.5599 119.921 16.5599H120.497V25.4879C118.337 26.2079 117.473 27.7919 117.473 29.5199C117.473 31.9679 119.345 33.6959 122.225 33.6959C124.241 33.6959 125.969 33.4079 127.697 32.9759C129.137 32.6879 131.009 32.2559 131.873 32.2559C133.025 32.2559 133.457 32.8319 133.457 33.5519C133.457 34.5599 133.025 34.9919 132.449 35.1359V35.4239C134.753 34.9919 136.193 33.5519 136.193 31.3919C136.193 29.2319 134.033 27.9359 131.729 27.9359C130.577 27.9359 128.129 28.3679 126.401 28.6559C124.385 29.0879 122.369 29.3759 121.793 29.3759C120.785 29.3759 119.633 28.9439 119.633 27.5039C119.633 26.3519 120.641 25.3439 123.089 25.3439C124.385 25.3439 125.969 25.4879 127.553 25.9199C129.281 26.3519 130.865 26.7839 132.305 26.7839C134.465 26.7839 136.337 26.0639 136.337 23.0399V5.32793L138.065 3.88793L137.777 3.59993ZM131.873 12.3839C131.441 12.8159 130.865 13.2479 130.145 13.2479C129.425 13.2479 128.705 12.8159 128.417 12.3839V6.04793L129.857 5.03993L131.873 6.91193V12.3839ZM131.873 16.7039C131.585 16.4159 130.865 15.9839 130.145 15.9839C129.425 15.9839 128.705 16.4159 128.417 16.7039V12.9599C128.705 13.2479 129.425 13.6799 130.145 13.6799C130.865 13.6799 131.585 13.2479 131.873 12.9599V16.7039ZM131.873 23.4719C131.873 24.6239 131.153 25.7759 129.569 25.7759H128.417V17.2799C128.705 16.9919 129.425 16.5599 130.145 16.5599C130.865 16.5599 131.441 16.9919 131.873 17.2799V23.4719ZM151.601 13.2479L146.993 9.93593L139.937 13.9679V23.3279L138.497 24.4799L138.641 24.7679L139.793 23.9039L144.401 27.3599L151.601 23.0399V13.2479ZM143.825 22.3199V11.9519L147.425 14.5439V24.7679L143.825 22.3199ZM165.281 10.2239H164.993C164.561 10.5119 164.129 10.7999 163.697 10.7999C163.121 10.7999 162.401 10.5119 162.113 10.0799H161.825L159.377 12.8159L156.929 10.0799L152.609 12.9599L152.753 13.2479L153.905 12.5279L155.345 14.1119V23.1839L153.473 24.6239L153.761 24.9119L154.625 24.1919L158.081 27.0719L162.545 24.0479L162.401 23.7599L161.105 24.4799L159.377 23.0399V12.9599C160.097 13.6799 160.961 14.3999 161.969 14.3999C163.985 14.5439 165.137 12.5279 165.281 10.2239ZM182.561 24.0479L177.665 27.3599L171.041 17.2799L175.793 9.93593H176.081C176.657 10.5119 177.521 11.0879 178.529 11.0879C179.537 11.0879 180.257 10.5119 180.689 9.93593H180.977C180.833 12.8159 178.817 14.5439 177.377 14.5439C175.937 14.5439 175.217 13.8239 174.353 13.3919L173.921 14.1119L181.121 24.7679L182.561 23.9039V24.0479ZM166.721 23.3279L164.849 24.7679L165.137 25.0559L166.001 24.3359L169.169 27.2159L173.489 24.3359L173.201 24.0479L172.049 24.7679L170.609 23.3279V1.15193H170.465L165.281 4.60793V4.89593C165.857 5.18393 166.721 5.32793 166.721 7.05593V23.3279ZM206.465 4.17593C206.465 1.29593 203.729 0.575928 201.569 0.575928V1.00793C202.865 1.00793 203.873 1.43993 203.873 2.44793C203.873 3.02393 203.441 3.88793 202.145 3.88793C201.137 3.88793 198.977 3.31193 197.393 2.73593C195.521 2.15993 193.793 1.58393 192.353 1.58393C189.473 1.58393 187.457 3.74393 187.457 6.19193C187.457 8.35193 189.041 9.07193 189.617 9.35993L189.761 9.07193C189.329 8.78393 188.897 8.49593 188.897 7.63193C188.897 7.05593 189.473 6.04793 190.913 6.04793C192.209 6.04793 193.937 6.62393 196.241 7.34393C198.257 7.91993 200.417 8.35193 201.569 8.49593V12.9599L199.409 14.8319V14.9759L201.569 16.8479V23.0399C200.417 23.7599 199.121 23.9039 197.969 23.9039C195.809 23.9039 193.937 23.3279 192.353 21.5999L198.257 18.7199V8.63993L191.057 11.8079C191.777 9.93593 193.361 8.63993 194.801 7.63193L194.657 7.34393C190.337 8.49593 186.449 12.3839 186.449 17.2799C186.449 23.0399 191.201 27.3599 196.529 27.3599C202.289 27.3599 206.033 22.7519 206.033 17.9999H205.745C204.881 19.8719 203.585 21.5999 202.001 22.4639V16.5599L204.305 14.6879V14.5439L202.145 12.6719V8.35193C204.305 8.35193 206.465 6.91193 206.465 4.17593ZM193.937 20.0159L192.209 20.8799C191.201 19.5839 190.625 17.8559 190.625 15.4079C190.625 14.3999 190.769 13.2479 191.057 12.3839L194.081 11.0879L193.937 20.0159ZM211.505 2.73593H211.361L208.481 5.18393V5.32793L210.929 8.06393H211.217L214.097 5.61593V5.47193L211.505 2.73593ZM215.825 24.0479L214.673 24.7679L213.233 23.3279V13.3919L214.673 12.3839L214.385 12.0959L213.377 12.9599L210.785 9.93593L206.609 12.8159L206.897 13.2479L207.905 12.5279L209.201 14.1119V23.4719L207.329 24.9119L207.473 25.1999L208.481 24.4799L211.649 27.3599L215.969 24.4799L215.825 24.0479ZM239.873 23.9039L238.865 24.6239L237.281 23.1839V13.3919L238.721 12.2399L238.433 11.9519L237.281 12.9599L233.969 9.93593L229.649 12.9599L226.337 9.93593L222.305 12.9599L219.713 9.93593L215.537 12.8159L215.681 13.2479L216.689 12.5279L218.129 14.1119V23.4719L216.977 24.6239L220.289 27.3599L223.457 24.4799L222.161 23.1839V13.3919L223.457 12.5279L225.617 14.5439V23.1839L224.465 24.3359L227.777 27.0719L230.945 24.1919L229.649 22.8959V13.3919L230.801 12.6719L233.105 14.6879V23.3279L232.097 24.3359L235.409 27.3599L239.873 24.3359V23.9039ZM252.401 21.7439L248.801 24.4799L245.201 21.5999V19.8719L251.969 15.2639V15.1199L248.513 9.93593L241.025 13.9679V23.7599L246.065 27.3599L252.545 22.1759L252.401 21.7439ZM245.201 19.2959V12.2399L245.489 12.0959L248.657 17.1359L245.201 19.2959ZM265.505 17.9999L262.769 15.8399C264.641 14.2559 265.361 12.0959 265.361 10.6559V9.79193H265.073C264.785 10.5119 264.209 11.2319 263.057 11.2319C261.905 11.2319 261.185 10.6559 260.465 9.79193L253.985 13.3919V18.5759L256.433 20.4479C253.985 22.6079 253.553 24.0479 253.553 25.1999C253.553 26.6399 254.273 27.6479 255.425 28.0799L255.569 27.7919C255.281 27.5039 254.993 27.3599 254.993 26.6399C254.993 26.2079 255.569 25.4879 256.721 25.4879C258.161 25.4879 259.025 26.4959 259.457 26.9279L265.649 23.1839V17.9999H265.505ZM263.921 13.6799C262.913 15.4079 260.753 17.1359 259.457 17.9999L257.873 16.7039V11.6639C258.449 13.1039 260.033 14.2559 261.617 14.2559C262.625 14.2559 263.201 14.1119 263.921 13.6799ZM261.473 25.1999C260.753 23.6159 259.025 22.4639 257.297 22.4639C256.865 22.4639 255.713 22.4639 254.561 23.1839C255.281 22.0319 257.153 20.0159 259.601 18.5759L261.329 20.0159L261.473 25.1999Z" fill="white"/>
</g>
<defs>
<clipPath id="clip0_50_204">
<rect width="266.4" height="36" fill="white" transform="translate(0.544922)"/>
</clipPath>
</defs>
</svg>
