<svg width="118" height="36" viewBox="0 0 118 36" fill="none" xmlns="http://www.w3.org/2000/svg">
<path d="M56.4223 0.37085C56.4223 0.37085 55.1237 0.39804 54.3712 0.38532C54.34 0.701144 53.9773 3.56305 53.6654 5.8652C53.3066 7.99546 50.4639 23.7979 49.5007 28.5283C49.2473 29.9567 48.4635 33.9918 48.3894 34.395C47.4847 34.5031 46.4163 34.6029 45.7183 34.6298C45.6247 34.6329 45.4687 34.6633 45.3946 34.6633V35.4826C45.4804 35.4791 45.9328 35.5138 46.2525 35.5002C47.0207 35.4756 49.2005 35.3722 49.6138 35.3722C51.1814 35.3722 52.2265 35.476 53.6771 35.5048C53.6965 35.5048 54.0943 35.5033 54.2698 35.481V34.6532C54.1489 34.6532 53.989 34.6493 53.8954 34.6493C53.486 34.6622 51.9769 34.5463 51.2126 34.4422C51.3023 33.901 52.6359 25.7169 53.2754 22.4441C54.492 16.3863 55.3343 12.093 55.3343 12.093L55.5605 12.626L65.1726 35.536L66.9273 35.545C66.9273 35.545 67.9295 33.0642 69.1188 30.2815C69.15 30.2156 69.2358 30.0164 69.3567 29.7317C70.6045 26.8422 76.789 12.1776 76.789 12.1776C76.789 12.1776 76.8475 12.4416 76.945 12.9138C77.5338 15.7881 79.5264 26.1466 79.9515 28.6457C80.1503 29.9314 80.3375 31.2353 80.4467 31.9992C80.6066 33.0809 80.7119 34.1396 80.7119 34.4438C80.5169 34.4528 78.5594 34.6298 77.8185 34.6618C77.7132 34.6583 77.5143 34.668 77.5026 34.67V35.5033C77.7678 35.5033 78.0251 35.515 78.2825 35.5091C79.7955 35.4803 81.25 35.3617 82.763 35.3625C84.4631 35.3641 87.22 35.5126 88.9865 35.5239C89.1853 35.5239 89.5402 35.5064 89.5402 35.5064V34.6645C89.4388 34.6637 88.9943 34.6419 88.8305 34.629C88.0389 34.567 86.7053 34.4434 86.366 34.4208C86.366 34.4208 86.1477 33.2108 85.8591 31.8132C84.7049 26.2226 81.4177 9.22925 80.9146 5.04788C80.743 3.6107 80.2556 0.383761 80.2556 0.383761L78.2786 0.383145C78.2786 0.383145 77.2686 3.28093 76.3484 5.92308C75.7206 7.72852 74.8666 9.95743 74.2154 11.6666C71.0023 20.1112 67.3992 27.9802 67.3992 27.9802C67.3992 27.9802 59.7407 9.7067 59.3351 8.64995C58.9257 7.59282 56.4223 0.37085 56.4223 0.37085ZM1.36999 0.378465L1.38676 2.3099L1.354 7.0134L1.86354 6.99897L1.91685 2.81565C1.91685 2.81554 4.71083 2.79148 5.0722 2.79194L10.2822 2.79421L13.6447 2.81097L13.6502 31.9035L13.651 34.4163L13.58 34.4261C13.1323 34.4608 11.41 34.566 10.7104 34.5914C10.5536 34.5965 10.4534 34.6004 10.4363 34.5984L10.4394 35.4497C10.5657 35.4559 10.9061 35.4641 10.951 35.4625C12.6059 35.4411 14.8454 35.2972 16.4332 35.2988C18.0464 35.2995 20.3167 35.4563 21.7216 35.4727C21.8608 35.4734 22.0258 35.4598 22.1595 35.4598V34.6616L21.9852 34.6631C21.5376 34.6612 19.0618 34.5017 18.8056 34.4682C18.7951 34.0778 18.7491 32.1936 18.7491 32.1519L18.7612 2.80785L21.3212 2.80107L28.0005 2.80563L30.2298 2.83609C30.2446 2.99538 30.3573 5.11437 30.3554 5.17208C30.3503 5.32611 30.4388 6.9046 30.4353 7.29299L30.9637 7.29923L30.9259 2.54191L30.95 0.401979C28.9871 0.455401 23.9845 0.522627 16.2207 0.518533C9.5624 0.514439 3.1458 0.458677 1.36999 0.378465ZM32.4664 0.386081L32.4746 1.21931C32.7382 1.23362 34.2879 1.37073 34.6646 1.38913C34.9652 1.42594 35.3848 1.46361 35.685 1.4927C35.685 1.75946 35.6897 3.60027 35.694 4.32678C35.7443 11.2128 35.7014 26.4315 35.6811 31.8163C35.6749 33.3733 35.6706 34.3766 35.6706 34.3766C35.4807 34.4336 35.0533 34.455 34.5913 34.4862C34.1962 34.5131 32.7807 34.632 32.4649 34.6387V35.472C32.5959 35.472 32.8361 35.4997 32.973 35.4985C34.5753 35.4989 36.803 35.3 38.4443 35.3012C40.1031 35.3023 42.318 35.5043 43.6243 35.5047L43.6204 35.5055C43.7335 35.5071 44.0025 35.4774 44.1156 35.4778V34.6449H44.0025C43.9519 34.634 42.2673 34.563 41.8579 34.5205C41.6434 34.5069 40.7153 34.4265 40.7036 34.3957C40.6997 34.3794 40.6958 34.1302 40.6958 33.7149C40.6997 33.3207 40.6997 32.6652 40.6997 31.9547C40.7036 26.5232 40.7192 10.3916 40.7231 4.22539C40.7231 3.03368 40.727 2.06541 40.727 1.54601C41.0897 1.52308 42.5714 1.36815 43.1018 1.32136C43.1252 1.31906 43.8271 1.27866 44.1156 1.26119V0.392944C42.3024 0.392281 39.9031 0.533987 38.1335 0.53309C36.2828 0.531959 34.0028 0.386763 32.4664 0.386081ZM116.382 0.4097C116.382 0.4097 116.191 0.410519 115.836 0.41122C114.624 0.416446 111.52 0.439218 107.889 0.459184C105.659 0.47213 103.916 0.490028 101.619 0.488897C100.009 0.507771 97.7547 0.56985 96.3626 0.567354C94.14 0.563728 92.3267 0.42674 91.3402 0.422646C90.8722 0.420579 90.611 0.438205 90.4823 0.43025C90.4901 0.442065 90.4901 1.2528 90.4901 1.2528C90.5759 1.26777 90.7474 1.28688 90.9073 1.28325C91.4649 1.32076 92.51 1.40519 93.0403 1.47518C93.1456 1.49448 93.325 1.52408 93.8241 1.57953C93.8202 1.76401 93.8475 3.85162 93.8436 5.10587C93.8436 6.2679 93.8319 32.1953 93.8319 32.1953C93.8319 32.2374 93.7734 34.2803 93.7734 34.4452C92.8921 34.5961 91.1998 34.689 90.6227 34.6913H90.4511V35.516C90.533 35.5156 90.9112 35.5305 91.1257 35.5305C92.0577 35.5301 94.4597 35.3819 96.9125 35.3803C98.6321 35.3788 100.523 35.4431 102.438 35.4704C104.797 35.5032 107.184 35.5047 109.328 35.5351C112.865 35.585 115.731 35.5893 116.663 35.5905C116.663 35.5905 116.776 29.0305 116.776 28.5017L116.265 28.5076C116.265 29.0656 116.059 31.1436 116.051 31.2344C115.985 32.0167 115.914 32.8363 115.86 33.2403C115.86 33.2403 115.61 33.2602 115.489 33.2579C114.908 33.2469 113.052 33.3144 113.013 33.3144L104.735 33.3179L98.9207 33.2204L98.8817 31.6076L98.8778 19.0857C99.915 19.0507 101.498 18.9957 102.461 18.9976C103.28 18.9992 105.21 18.9532 106.291 18.9555C108.915 18.9602 111.247 18.977 111.434 18.9824C111.867 18.9949 112.67 19.0214 112.974 19.0401C112.986 19.1505 113.021 19.3228 113.025 19.3716C113.181 20.3304 113.267 20.9945 113.372 21.9358C113.388 22.0205 113.395 22.1024 113.407 22.1796H114.004C114.004 22.1796 114.019 21.843 114.011 21.6336C114 20.8955 113.953 19.423 113.953 17.7911C113.949 16.6599 114.015 14.9305 114.023 14.0988C114.027 13.8738 114 13.7139 114 13.6495L113.454 13.6601C113.45 13.8398 113.407 14.105 113.407 14.105C113.36 14.725 113.185 15.5174 113.044 16.3534C113.005 16.4575 112.978 16.603 112.978 16.603C112.916 16.624 111.204 16.7153 111.052 16.7141C110.993 16.7137 108.502 16.7835 108.459 16.7835L98.8817 16.7476L98.8973 2.93973C98.8973 2.93977 100.114 2.8968 100.453 2.89863C101.834 2.89887 104.08 2.88631 106.369 2.88951C109.718 2.89356 112.97 2.91443 112.978 2.91918C112.998 2.92874 113.988 2.9425 114.008 2.95954C114.031 2.97818 115.271 3.01527 115.575 3.02505C115.575 3.02505 115.599 3.12784 115.614 3.25734C115.751 4.7132 115.864 6.44221 115.914 7.05481L115.918 7.30009L116.429 7.29852C116.429 6.40204 116.382 3.65661 116.375 1.90989C116.371 1.34888 116.382 0.892021 116.382 0.632085V0.4097Z" fill="white"/>
</svg>
