<svg width="162" height="36" viewBox="0 0 162 36" fill="none" xmlns="http://www.w3.org/2000/svg">
<g clip-path="url(#clip0_50_202)">
<path d="M121.473 9.18159L121.316 13.9143C115.789 13.5355 114.211 14.9557 114.211 19.5934V20.1919H109.474V9.46541H114.211V12.5259C115.632 10.0336 117.558 8.89776 121.473 9.18159ZM8.74333 28.4281H13.4797V10.1275H8.74333V28.4275V28.4281ZM32.2049 9.21341C28.8893 9.21341 26.8686 10.6962 25.7948 12.3365V2.24035H0.848877V6.65741H21.3741V20.1919H25.8893C25.8893 16.3112 28.1317 13.5673 30.8787 13.5673C33.2474 13.5673 34.3206 14.7345 34.3206 18.9308V28.4281H39.057V17.2273C39.057 11.8639 36.31 9.21341 32.2049 9.21341ZM50.8353 24.7988C47.962 24.7988 46.0989 23.0635 45.7832 20.1924H41.3307C41.7726 25.2408 45.0883 28.8063 50.8039 28.8063C55.2246 28.8063 57.7191 26.8185 59.0141 23.8211L55.0034 22.054C54.4034 23.8524 53.2984 24.7988 50.8353 24.7988ZM50.6459 9.30733C48.9552 9.26999 47.2825 9.6607 45.7832 10.4432L48.0565 13.6612C48.909 13.2199 49.8252 12.9986 50.8039 13.0299C53.4565 13.0299 54.814 14.7658 55.0034 17.0369H50.4246V20.1924H59.456C59.5191 19.7192 59.5509 19.2773 59.5509 18.8046C59.5822 11.9259 55.0353 9.30733 50.6459 9.30733ZM97.5378 24.7988C94.6646 24.7988 92.8014 23.0635 92.4858 20.1924H88.0332C88.4752 25.2408 91.7908 28.8063 97.5065 28.8063C101.927 28.8063 104.422 26.8185 105.717 23.8211L101.706 22.054C101.075 23.8524 99.9696 24.7988 97.5378 24.7988ZM97.3802 9.30733C95.6893 9.2699 94.0165 9.66062 92.5171 10.4432L94.7908 13.6612C95.6434 13.2199 96.559 12.9986 97.5378 13.0299C100.19 13.0299 101.548 14.7658 101.738 17.0369H97.159V20.1924H106.19C106.253 19.7192 106.285 19.2773 106.285 18.8046C106.317 11.9259 101.769 9.30733 97.3802 9.30733ZM152.892 24.7988C150.019 24.7988 148.156 23.0635 147.84 20.1924H143.388C143.83 25.2408 147.145 28.8063 152.861 28.8063C157.282 28.8063 159.776 26.8185 161.071 23.8211L157.061 22.054C156.429 23.8524 155.324 24.7988 152.892 24.7988ZM152.64 9.30733C150.949 9.26997 149.276 9.66068 147.777 10.4432L150.05 13.6612C150.903 13.2199 151.819 12.9986 152.798 13.0299C155.45 13.0299 156.808 14.7658 156.997 17.0369H152.419V20.1924H161.45C161.513 19.7192 161.545 19.2773 161.545 18.8046C161.576 11.9259 157.029 9.30733 152.64 9.30733ZM61.9822 0L70.5012 20.1919H75.68L69.1817 4.13323H77.5812V0.0318262L61.9822 0.000521741V0ZM87.2439 0.0313044L77.4863 24.7362L76.0337 28.4281H80.9913L92.7065 0.0318262H87.2439V0.0313044ZM130.789 27.9861C132.81 27.9861 134.483 27.418 135.651 26.4402L133.757 23.4428C133.157 23.6954 132.494 23.7898 131.831 23.7898C129.241 23.7898 127.757 22.2439 127.252 20.1929H122.61C123.242 24.5787 126.399 27.9861 130.789 27.9861ZM136.63 12.1159C135.557 10.4124 133.378 9.18159 130.346 9.18159C127.378 9.15028 124.631 10.7593 123.179 13.3779L127.126 15.9021C127.852 14.3875 129.273 13.3779 131.452 13.3779C134.546 13.3779 136.63 15.7759 136.63 18.6152C136.63 19.152 136.567 19.6884 136.41 20.1929H141.367V9.49724H136.63V12.1159ZM132.052 32.2769C128.989 32.2769 127.852 30.7942 127.631 29.0588H123.116C123.21 32.3719 125.421 36.0001 132.146 36.0001C136.693 36.0001 139.662 33.7284 140.893 30.3209L136.63 28.8382C136.03 31.0467 134.388 32.2769 132.052 32.2769Z" fill="white"/>
</g>
<defs>
<clipPath id="clip0_50_202">
<rect width="160.696" height="36" fill="white" transform="translate(0.848877)"/>
</clipPath>
</defs>
</svg>
